<ttFont>
          <CharString index="0">
            -28 12 -104 callgsubr
            return
          </CharString>
          <CharString index="1">
            -19 -105 callgsubr
          </CharString>
          <CharString index="2">
            vlineto
            -104 callsubr
          </CharString>
          <CharString index="3">
            -17 44 -106 callsubr
          </CharString>
          <CharString index="4">
            vhcurveto
            -99 callsubr
          </CharString>
          <CharString index="5">
            29 -91 callsubr
            return
          </CharString>
          <CharString index="6">
            -17 43 -106 callsubr
          </CharString>
          <CharString index="7">
            -28 12 -29 -98 callsubr
            return
          </CharString>
          <CharString index="8">
            557 vlineto
            endchar
          </CharString>
          <CharString index="9">
            14 -17 vhcurveto
            -93 callsubr
            return
          </CharString>
          <CharString index="10">
            rmoveto
            87 295 85 -295 rlineto
            158 -225 rmoveto
            -191 624 -28 3 -20 0 -28 -3 rlinecurve
            -193 -626 122 callsubr
            183 99 callsubr
            50 170 rlineto
            203 hlineto
            49 -172 263 callgsubr
          </CharString>
          <CharString index="11">
            rmoveto
            569 callsubr
            -375 vlineto
            -142 -64 -61 -105 -99 -51 62 147 vhcurveto
            371 vlineto
            41 490 callgsubr
            -38 4 -40 -31 callgsubr
            -367 vlineto
            -179 70 -92 155 169 74 102 177 674 callgsubr
            39 -81 callsubr
            return
          </CharString>
          <CharString index="12">
            25 -36 -50 19 -53 hhcurveto
            -98 -81 -61 -102 730 callsubr
            hvcurveto
            509 callsubr
            return
          </CharString>
          <CharString index="13">
            -29 14 -17 return
          </CharString>
          <CharString index="14">
            116 -87 callgsubr
            return
          </CharString>
          <CharString index="15">
            hhcurveto
            52 41 16 17 29 -87 callsubr
          </CharString>
          <CharString index="16">
            -14 18 vhcurveto
            return
          </CharString>
          <CharString index="17">
            rmoveto
            -11 21 -30 30 -28 3 -165 -129 rcurveline
            6 -12 9 339 callgsubr
            return
          </CharString>
          <CharString index="18">
            -71 callsubr
            126 -189 hlineto
            -40 -30 -9 723 callsubr
            69 -76 39 13 16 34 callgsubr
            return
          </CharString>
          <CharString index="19">
            -195 -111 -148 -225 3 hvcurveto
            -209 3 100 -127 170 hhcurveto
            201 107 148 221 -1 hvcurveto
            256 -3 -138 84 -136 hhcurveto
            -13 -61 rmoveto
            139 1 61 -120 -178 vvcurveto
            -174 -65 -115 -138 -1 vhcurveto
            -138 -59 120 173 215 callgsubr
            hvcurveto
            return
          </CharString>
          <CharString index="20">
            hvcurveto
            -129 -105 callsubr
          </CharString>
          <CharString index="21">
            191 callgsubr
            -25 -69 callsubr
            return
          </CharString>
          <CharString index="22">
            rmoveto
            257 vlineto
            146 -86 52 -82 -73 -52 -39 -35 -38 vhcurveto
            -3 hlineto
            -11 71 -144 715 callgsubr
            -31 462 callgsubr
            -384 vlineto
            -40 -61 callgsubr
            -71 6 rlineto
            322 vlineto
            39 45 37 22 58 hhcurveto
            69 35 -43 -87 hvcurveto
            -255 vlineto
            -39 -34 callsubr
            196 -57 callsubr
            return
          </CharString>
          <CharString index="23">
            -28 12 -29 14 -77 callsubr
            return
          </CharString>
          <CharString index="24">
            rmoveto
            75 callgsubr
            -18 558 callsubr
            return
          </CharString>
          <CharString index="25">
            -51 callsubr
            -43 50 -14 hvcurveto
            return
          </CharString>
          <CharString index="26">
            741 callgsubr
            4 callsubr
            return
          </CharString>
          <CharString index="27">
            rmoveto
            455 vlineto
            -161 715 callgsubr
            -32 29 -3 vhcurveto
            48 -47 callgsubr
            return
          </CharString>
          <CharString index="28">
            -66 callsubr
            204 hlineto
            38 -4 40 10 -1 hvcurveto
            return
          </CharString>
          <CharString index="29">
            rmoveto
            -38 4 -40 -31 callgsubr
            -461 vlineto
            -339 517 rlineto
            -113 41 callsubr
            177 322 callsubr
            481 vlineto
            352 -537 rlineto
            23 18 3 9 18 hvcurveto
            613 205 callsubr
          </CharString>
          <CharString index="30">
            -17 vhcurveto
            99 hlineto
            -9 -17 -6 308 callgsubr
            -54 88 -34 vhcurveto
            6 3 11 17 3 10 rrcurveto
            -58 41 -12 31 29 vvcurveto
            45 35 27 36 57 22 -47 -51 return
          </CharString>
          <CharString index="31">
            hvcurveto
            -75 callgsubr
            return
          </CharString>
          <CharString index="32">
            rmoveto
            -38 4 -38 -10 1 hvcurveto
            52 -5 -102 -308 -100 317 -47 -1 -115 -325 -94 318 33 2 39 4 -5 36 1 10 rlinecurve
            -172 hlineto
            -26 -5 -30 -18 1 hvcurveto
            41 -6 rlineto
            1 hlineto
            145 -440 rlineto
            49 hlineto
            112 296 102 -296 rlineto
            49 hlineto
            167 443 9 1 26 2 6 21 -1 27 rlinecurve
            endchar
          </CharString>
          <CharString index="33">
            hvcurveto
            10 25 5 30 34 647 callgsubr
            return
          </CharString>
          <CharString index="34">
            rmoveto
            -98 callgsubr
            return
          </CharString>
          <CharString index="35">
            rmoveto
            -37 4 -38 -10 1 hvcurveto
            54 -6 -118 -307 -122 309 30 2 40 5 -6 35 589 callgsubr
            -37 4 -38 -10 1 hvcurveto
            51 -6 rlineto
            1 hlineto
            176 -411 rlineto
            -61 -23 -54 -124 -40 hhcurveto
            -27 -1 25 18 4 hvcurveto
            2 -5 -7 0 -4 hhcurveto
            -29 -19 -22 -30 -32 26 -28 50 88 52 132 103 42 hvcurveto
            1 hlineto
            175 431 9 1 40 6 -6 34 649 callsubr
          </CharString>
          <CharString index="36">
            742 callgsubr
            13 -17 vhcurveto
            return
          </CharString>
          <CharString index="37">
            hlineto
            38 -4 40 10 -1 hvcurveto
            return
          </CharString>
          <CharString index="38">
            -74 callsubr
            -11 39 vhcurveto
            return
          </CharString>
          <CharString index="39">
            vlineto
            -99 callgsubr
            return
          </CharString>
          <CharString index="40">
            243 callsubr
            73 -6 -153 -282 -159 284 rlineto
            1 hlineto
            41 3 39 2 -5 40 1 10 rlinecurve
            -204 430 callsubr
            58 -6 198 -346 rlineto
            -224 60 callgsubr
            205 322 callsubr
            224 vlineto
            195 346 22 3 40 4 -6 38 649 callsubr
          </CharString>
          <CharString index="41">
            41 3 40 2 -6 39 1 10 rlinecurve
            -204 41 callsubr
            return
          </CharString>
          <CharString index="42">
            537 -93 callgsubr
            return
          </CharString>
          <CharString index="43">
            -107 callgsubr
            333 -76 hlineto
            269 callgsubr
            -154 -87 -82 -110 -83 49 -71 74 -34 hvcurveto
            hintmask 1111101001000000
            -46 -21 -26 -41 -47 vvcurveto
            -72 62 -66 94 104 76 86 91 10 vhcurveto
            hintmask 1111110010000000
            14 -21 16 -32 12 -22 22 10 39 29 10 17 -20 33 -40 43 -45 42 rrcurveto
            21 23 13 31 34 vvcurveto
            40 -18 28 435 callgsubr
            -21 13 -18 vhcurveto
            -15 -22 -39 -5 -25 hhcurveto
            -75 -87 29 98 92 78 47 116 hvcurveto
            hintmask 1111110100000000
            175 callsubr
          </CharString>
          <CharString index="44">
            458 679 -96 callsubr
            return
          </CharString>
          <CharString index="45">
            241 -4 9 -115 rlineto
            10 -1 40 -4 35 vvcurveto
            144 -426 vlineto
            -39 4 -39 745 callgsubr
            -7 rlineto
            return
          </CharString>
          <CharString index="46">
            49 callsubr
            211 callsubr
            -1183 10 callsubr
            hintmask 1101111111000000
            -94 callgsubr
            401 424 callgsubr
            hvcurveto
            hintmask 1010111111000000
            -95 80 -88 110 53 40 17 24 34 vhcurveto
            -19 callsubr
          </CharString>
          <CharString index="47">
            -30 -28 -44 -25 -62 hhcurveto
            -77 -52 220 callgsubr
            100 24 47 121 callsubr
            return
          </CharString>
          <CharString index="48">
            537 -85 callgsubr
            return
          </CharString>
          <CharString index="49">
            107 callsubr
            -7 callsubr
            return
          </CharString>
          <CharString index="50">
            hlineto
            38 -4 38 10 -1 hvcurveto
            return
          </CharString>
          <CharString index="51">
            rmoveto
            -60 callsubr
            187 hlineto
            return
          </CharString>
          <CharString index="52">
            rmoveto
            -27 -48 -73 -9 -63 hhcurveto
            -21 -20 1 1 -17 hvcurveto
            hintmask 0100111110100000
            15 -17 -21 9 -24 hhcurveto
            hintmask 0110011110100000
            111 callgsubr
            39 16 106 hvcurveto
            52 16 -3 17 hhcurveto
            13 26 29 18 hvcurveto
            110 243 406 callsubr
            -863 -107 callgsubr
            313 -80 -130 hlineto
            -75 -49 -40 -68 -89 75 -71 60 hvcurveto
            hintmask 1000111101100000
            -77 callgsubr
            hvcurveto
            hintmask 0101011101100000
            17 -4 19 -7 19 vhcurveto
            -4 26 31 -3 31 hhcurveto
            39 40 5 13 33 hvcurveto
            -50 vlineto
            -190 -111 174 callgsubr
            rlinecurve
            144 105 rlineto
            -116 vlineto
            -17 43 -19 39 vhcurveto
            588 vlineto
            endchar
          </CharString>
          <CharString index="53">
            hlineto
            -99 callgsubr
            return
          </CharString>
          <CharString index="54">
            -7 78 -148 -19 rlineto
            -13 -1 -30 25 -3 vhcurveto
            51 -5 rlineto
            -382 112 callgsubr
            209 -57 callsubr
            -84 6 rlineto
            313 vlineto
            40 36 38 27 34 hhcurveto
            27 11 -22 -51 hvcurveto
            20 -2 15 2 11 9 rrcurveto
            11 12 10 33 29 vvcurveto
            48 -33 17 -31 return
          </CharString>
          <CharString index="55">
            -12 callgsubr
            -1188 136 callgsubr
            -70 callgsubr
            -134 589 callsubr
            10 26 104 123 callgsubr
            465 hlineto
            -39 callsubr
            hintmask 01111111
            3 -19 5 -19 6 -19 rrcurveto
            -60 -31 -58 -36 -57 -27 callgsubr
            65 56 30 55 43 hvcurveto
            hintmask 10111111
            -52 39 61 -37 86 -92 callsubr
          </CharString>
          <CharString index="56">
            21 callgsubr
            17 return
          </CharString>
          <CharString index="57">
            -10 -74 49 -89 hhcurveto
            -56 -49 -21 -20 -24 hvcurveto
            7 -26 21 -30 13 -14 rrcurveto
            25 29 42 23 42 hhcurveto
            50 25 -34 -46 -56 -36 -38 -62 -96 -72 82 104 -68 hvcurveto
            -12 -5 -21 -12 -6 -9 rrcurveto
            -112 49 113 -114 132 hhcurveto
            81 56 43 68 13 hvcurveto
            -3 12 17 -2 16 hhcurveto
            return
          </CharString>
          <CharString index="58">
            -19 -1 -14 8 -12 36 -23 27 -5 rrcurveto
            return
          </CharString>
          <CharString index="59">
            11 23 26 2 15 hhcurveto
            52 36 -35 -51 -48 -32 -36 -65 -97 -62 80 121 -59 hvcurveto
            -15 -2 -21 -12 -10 -11 rrcurveto
            -134 56 98 -118 134 hhcurveto
            96 54 62 83 5 0 5 -1 4 hvcurveto
            13 hlineto
            34 32 5 8 23 hvcurveto
            -223 vlineto
            -53 callgsubr
            return
          </CharString>
          <CharString index="60">
            41 -81 callsubr
            return
          </CharString>
          <CharString index="61">
            8 callgsubr
            741 callsubr
            8 12 return
          </CharString>
          <CharString index="62">
            -39 callgsubr
            vlineto
            return
          </CharString>
          <CharString index="63">
            -43 callgsubr
            200 -57 callsubr
            return
          </CharString>
          <CharString index="64">
            hlineto
            -101 callsubr
          </CharString>
          <CharString index="65">
            rmoveto
            -35 -46 -84 -11 -70 hhcurveto
            -21 -20 1 1 -17 hvcurveto
            hintmask 0100111110000000
            15 -17 -21 9 -24 hhcurveto
            hintmask 0110011110000000
            111 callgsubr
            39 16 106 hvcurveto
            52 16 -3 17 hhcurveto
            13 26 29 18 hvcurveto
            110 220 283 callgsubr
            -616 -107 callgsubr
            313 -80 -130 hlineto
            -75 -49 -40 -68 -89 75 -71 60 hvcurveto
            hintmask 1000111101000000
            -77 callgsubr
            hvcurveto
            hintmask 0101011101000000
            17 -4 19 -7 19 vhcurveto
            -4 26 31 -3 31 hhcurveto
            47 48 7 20 35 hvcurveto
            return
          </CharString>
          <CharString index="66">
            56 -34 callgsubr
            return
          </CharString>
          <CharString index="67">
            -17 vhcurveto
            120 -235 hlineto
            -40 -1 -30 -8 -9 -16 rrcurveto
            -4 -5 -2 -11 -11 131 callsubr
            return
          </CharString>
          <CharString index="68">
            6 callsubr
            -97 -21 vhcurveto
            return
          </CharString>
          <CharString index="69">
            17 -20 36 -43 45 -43 40 rrcurveto
            20 24 11 31 593 callsubr
            -31 -30 -57 -29 -44 -13 5 -28 14 -18 vhcurveto
            -13 -21 -31 -8 -34 hhcurveto
            -83 -69 45 88 100 69 48 120 hvcurveto
            return
          </CharString>
          <CharString index="70">
            6 -39 -1 -10 return
          </CharString>
          <CharString index="71">
            vvcurveto
            -96 70 -79 117 34 39 10 16 30 vhcurveto
            32 -46 22 303 callgsubr
            -17 30 -47 53 -39 187 callgsubr
            return
          </CharString>
          <CharString index="72">
            7 7 9 18 3 12 rrcurveto
            -41 22 -26 32 40 vvcurveto
            38 21 22 32 436 callsubr
            -121 vlineto
            -61 -1 -25 -14 -33 vvcurveto
            -50 69 -54 21 -8 vhcurveto
            743 callsubr
            6 hhcurveto
            12 256 callgsubr
            38 1 33 rrcurveto
            return
          </CharString>
          <CharString index="73">
            -2 -40 -3 -43 callgsubr
            return
          </CharString>
          <CharString index="74">
            -40 callsubr
            42 1 35 0 32 -1 return
          </CharString>
          <CharString index="75">
            hlineto
            -28 11 -104 callgsubr
            return
          </CharString>
          <CharString index="76">
            62 vstem
            -63 callsubr
            return
          </CharString>
          <CharString index="77">
            rmoveto
            20 -31 -42 18 -53 hhcurveto
            -82 -88 434 callsubr
            45 34 13 19 29 hvcurveto
            -40 vlineto
            -20 -57 -64 -10 -66 hhcurveto
            -126 -111 47 77 -56 hvcurveto
            91 9 36 718 callsubr
            367 hlineto
            -298 vmoveto
            -35 -33 -48 -22 -46 304 callsubr
            66 43 33 -10 -14 26 hvcurveto
            224 180 -85 callgsubr
            -822 -107 callgsubr
            144 hlineto
            19 -39 16 -55 -50 vvcurveto
            -19 -2 -27 -7 -21 vhcurveto
            4 -19 -23 4 -14 hhcurveto
            -50 -29 -22 -48 -93 114 -119 165 -26 hvcurveto
            -240 -64 3 -25 13 -32 13 -13 rlinecurve
            495 148 rlineto
            -61 vlineto
            -17 43 479 callsubr
          </CharString>
          <CharString index="78">
            80 -65 61 -91 -51 -50 -19 -39 -49 vhcurveto
            6 -21 22 -37 19 -17 rrcurveto
            44 45 44 19 42 hhcurveto
            37 25 -18 -38 -40 -28 -55 -123 -33 hvcurveto
            5 -22 17 -34 17 -14 rrcurveto
            return
          </CharString>
          <CharString index="79">
            689 callsubr
            44 10 16 return
          </CharString>
          <CharString index="80">
            -31 -79 -146 -117 -118 -144 -74 -37 33 49 64 74 29 54 6 vhcurveto
            -10 29 -14 20 return
          </CharString>
          <CharString index="81">
            70 89 0 callgsubr
            return
          </CharString>
          <CharString index="82">
            -130 333 callsubr
            hintmask 10101000
            438 611 rmoveto
            -82 243 callgsubr
            80 -78 callgsubr
            -114 -196 rmoveto
            -36 -9 -33 -11 -27 -15 rrcurveto
            hintmask 01101000
            -39 10 -44 36 60 742 callsubr
            35 30 9 -21 -20 -28 -14 -14 -28 644 callgsubr
            -15 8 -6 rrcurveto
            57 20 31 334 callsubr
            37 -57 75 -28 vhcurveto
            hintmask 10011000
            -21 -24 -12 -28 -36 vvcurveto
            -77 56 -52 71 -14 vhcurveto
            -141 -74 174 callgsubr
            rlinecurve
            342 204 -24 117 rlineto
            -64 -29 -79 -59 -71 hhcurveto
            -55 100 callgsubr
            hintmask 10101000
            596 callgsubr
            -15 14 rrcurveto
            return
          </CharString>
          <CharString index="83">
            50 34 56 59 240 callgsubr
            -48 -33 hvcurveto
            14 -24 18 -25 27 -16 rrcurveto
            49 37 70 77 103 vvcurveto
            102 -73 69 -89 -56 -45 355 callgsubr
          </CharString>
          <CharString index="84">
            182 callsubr
            -53 25 callsubr
            187 hlineto
            224 hmoveto
            27 -11 29 -15 678 callsubr
            608 -4 callsubr
            -32 -10 -25 -23 -20 vhcurveto
            15 -63 -76 14 -68 hhcurveto
            -83 hlineto
            -8 -3 -19 -27 -4 -14 rrcurveto
            hintmask 10111110
            23 -27 56 -63 -62 vvcurveto
            -50 -33 -19 -38 -106 451 callgsubr
            -11 rrcurveto
            -175 555 callgsubr
            29 hvcurveto
            129 hlineto
            hintmask 01111110
            -106 18 73 -108 147 hhcurveto
            53 41 16 17 29 hvcurveto
            -129 -100 callgsubr
          </CharString>
          <CharString index="85">
            566 rmoveto
            -5 callsubr
            170 hmoveto
            -20 callgsubr
            return
          </CharString>
          <CharString index="86">
            424 callgsubr
            -95 80 -88 110 139 callsubr
            return
          </CharString>
          <CharString index="87">
            vvcurveto
            41 -20 35 return
          </CharString>
          <CharString index="88">
            254 callgsubr
            416 callsubr
            25 -16 rrcurveto
            55 38 42 480 callgsubr
            -71 70 -90 382 callgsubr
            vhcurveto
            endchar
          </CharString>
          <CharString index="89">
            -101 73 -96 125 57 41 20 36 callsubr
          </CharString>
          <CharString index="90">
            -123 hlineto
            -143 56 -106 122 46 43 16 20 32 vhcurveto
            -185 vlineto
            -17 43 -19 39 vhcurveto
            return
          </CharString>
          <CharString index="91">
            vlineto
            -2 callgsubr
          </CharString>
          <CharString index="92">
            rmoveto
            649 vlineto
            270 callgsubr
            -32 29 -3 vhcurveto
            29 callgsubr
            return
          </CharString>
          <CharString index="93">
            -85 callgsubr
            -307 243 callgsubr
            86 -284 hlineto
            hintmask 10011100
            -48 -36 -60 -36 -58 501 callsubr
            hintmask 01101100
            -35 -8 -33 -11 -28 -16 rrcurveto
            -41 12 -42 36 58 742 callsubr
            35 30 9 -21 -20 -28 -14 -14 -28 644 callgsubr
            -15 8 -6 rrcurveto
            57 20 31 334 callsubr
            39 -57 74 -27 vhcurveto
            hintmask 10011100
            -21 -24 -13 -29 -36 385 callsubr
            44 -19 39 vhcurveto
            557 vlineto
            endchar
          </CharString>
          <CharString index="94">
            134 callgsubr
            37 -1 35 -2 33 -3 rrcurveto
            -211 -100 callgsubr
          </CharString>
          <CharString index="95">
            -28 callgsubr
            268 vlineto
            51 35 55 59 62 hhcurveto
            return
          </CharString>
          <CharString index="96">
            50 callsubr
            597 callsubr
            return
          </CharString>
          <CharString index="97">
            -25 callgsubr
            -323 hlineto
            -28 15 -104 callgsubr
            96 -215 hlineto
            4 -56 -105 1 -32 hhcurveto
            134 vlineto
            hintmask 10111100
            538 callgsubr
            -71 -55 -35 -68 -69 54 -46 75 -29 vhcurveto
            -35 callsubr
            63 66 -1 -4 61 hvcurveto
            -303 -205 6 -22 716 callsubr
            rlinecurve
            258 196 rlineto
            -160 vlineto
            -17 43 -23 411 callgsubr
          </CharString>
          <CharString index="98">
            60 12 -15 -20 -24 -17 -11 -26 -22 -15 8 10 -13 hvcurveto
            -6 -4 -8 -16 2 -15 rrcurveto
            -15 14 24 -13 36 hhcurveto
            56 39 33 49 37 -23 34 -59 hvcurveto
            return
          </CharString>
          <CharString index="99">
            147 callgsubr
            9 -12 36 552 callsubr
            return
          </CharString>
          <CharString index="100">
            24 15 callsubr
            return
          </CharString>
          <CharString index="101">
            -14 -50 71 callsubr
            return
          </CharString>
          <CharString index="102">
            31 306 callsubr
            -31 -33 -26 -26 -31 -31 26 -26 33 hvcurveto
            return
          </CharString>
          <CharString index="103">
            hlineto
            25 -28 15 -30 -28 vvcurveto
            return
          </CharString>
          <CharString index="104">
            672 callgsubr
            -54 69 hstemhm
            -396 69 388 63 -18 82 hintmask 11010100
            329 -65 callsubr
            hintmask 10111000
            -127 hlineto
            -24 29 -29 44 67 vvcurveto
            50 18 33 156 callsubr
            hvcurveto
            -4 0 -5 -4 vvcurveto
            hintmask 11010100
            65 -65 -94 57 -122 hhcurveto
            -104 -72 -50 -75 -57 37 -47 20 -16 hvcurveto
            11 2 17 10 8 7 rrcurveto
            -9 13 -15 24 31 vvcurveto
            62 58 23 76 153 103 -126 -78 45 vhcurveto
            -144 -45 callsubr
            return
          </CharString>
          <CharString index="105">
            648 callsubr
            245.5 54.5 -39.5 54.5 return
          </CharString>
          <CharString index="106">
            25 -28 16 -30 -28 vvcurveto
            return
          </CharString>
          <CharString index="107">
            rmoveto
            62 34 51 106 78 hhcurveto
            54 23 -45 -50 -80 -57 -79 -77 -44 -37 26 42 -35 hvcurveto
            hintmask 01111110
            -183 -61 rmoveto
            -47 -43 36 69 59 36 77 97 58 39 -28 -24 23 hvcurveto
            -8 -15 -9 -16 -9 -17 rrcurveto
            -71 -39 -30 -70 -68 hhcurveto
            378 396 rmoveto
            188 -78 callgsubr
            -760 -107 callgsubr
            489 -87 hlineto
            -47 -11 -33 -31 -30 -43 rrcurveto
            38 -28 -53 51 -87 hhcurveto
            -106 -66 -75 -109 -130 95 -69 80 59 44 38 53 36 hvcurveto
            hintmask 10111110
            -47 31 57 -46 76 hhcurveto
            103 77 84 115 91 -48 70 -77 19 hvcurveto
            endchar
          </CharString>
          <CharString index="108">
            -94 -72 -97 -46 25 -38 28 -30 hvcurveto
            endchar
          </CharString>
          <CharString index="109">
            19 callgsubr
            3 40 rrcurveto
            return
          </CharString>
          <CharString index="110">
            -1 0 242 callgsubr
            243.5 67 252 57 return
          </CharString>
          <CharString index="111">
            39 1 10 rlinecurve
            return
          </CharString>
          <CharString index="112">
            rmoveto
            18 9 9 12 6 12 -165 129 rcurveline
            -28 -3 -30 -30 -11 -21 rrcurveto
            endchar
          </CharString>
          <CharString index="113">
            -1 callsubr
            -64 -41 -35 return
          </CharString>
          <CharString index="114">
            rmoveto
            519 callsubr
            -134 -123 rcurveline
            8 -14 8 -9 14 -8 188 callsubr
            endchar
          </CharString>
          <CharString index="115">
            101 50 -42 -96 hvcurveto
            53 21 31 36 64 -62 65 -150 -213 -109 -157 -218 4 hvcurveto
            -211 3 100 -125 181 hhcurveto
            return
          </CharString>
          <CharString index="116">
            219 callsubr
            41 -38 return
          </CharString>
          <CharString index="117">
            12 callsubr
            vhcurveto
            return
          </CharString>
          <CharString index="118">
            rmoveto
            -46 -37 -58 -33 -57 hhcurveto
            -52 -38 29 46 65 72 27 66 17 hvcurveto
            -7 24 -17 27 -14 15 rrcurveto
            hintmask 11010000
            -26 -11 -34 -14 -24 -7 rrcurveto
            -30 3 -42 26 54 vvcurveto
            24 9 24 13 16 vhcurveto
            276 199 callgsubr
            -646 -107 callgsubr
            58 hlineto
            -9 -15 -6 -19 -24 vvcurveto
            -54 28 -50 66 -27 vhcurveto
            hintmask 10110000
            -25 -25 -13 -30 -37 vvcurveto
            -77 57 -51 75 -15 vhcurveto
            -126 -62 7 -24 16 -29 16 -16 rlinecurve
            277 165 rlineto
            -131 -105 callsubr
          </CharString>
          <CharString index="119">
            hlineto
            -84 callsubr
            return
          </CharString>
          <CharString index="120">
            -34 -41 -44 -19 -49 hhcurveto
            -119 -33 97 99 112 44 86 91 70 25 -53 -44 1 hvcurveto
            30 -2 35 14 47 vvcurveto
            61 -57 40 -89 return
          </CharString>
          <CharString index="121">
            hhcurveto
            -51 -44 32 67 return
          </CharString>
          <CharString index="122">
            -27 55 73 callgsubr
            return
          </CharString>
          <CharString index="123">
            -42 322 callgsubr
            vstem
            528 611 rmoveto
            -564 -107 callgsubr
            563 -90 callgsubr
            -470 -175 rmoveto
            389 callgsubr
            64 -14 77 -47 56 -62 -299 -185 rcurveline
            7 -21 26 -32 16 -10 332 233 rcurveline
            140 -77 -156 78 361 callsubr
            return
          </CharString>
          <CharString index="124">
            -107 callgsubr
            129 -205 hlineto
            -40 -1 -23 276 callsubr
            64 -70 34 460 callgsubr
            36 36 vvcurveto
            return
          </CharString>
          <CharString index="125">
            -155 -45 -75 -69 -86 60 -50 92 63 52 25 33 37 hvcurveto
            return
          </CharString>
          <CharString index="126">
            -98 callgsubr
            -559 237 callsubr
            -101 hlineto
            202 callsubr
            -136 -98 -77 -123 return
          </CharString>
          <CharString index="127">
            328 rmoveto
            -32 2 -42 2 -40 427 callsubr
            204 217 199 callsubr
            -650 17 callsubr
            37 34 0 -1 32 hvcurveto
            40 -1 37 -2 35 -3 rrcurveto
            -8 vlineto
            -306 -207 7 -21 731 callgsubr
            -163 -105 callsubr
          </CharString>
          <CharString index="128">
            -202 410 callsubr
            229 26 vstem
            452 327 rmoveto
            -34 2 -64 3 -48 1 rrcurveto
            -38 -38 595 callsubr
            204 193 vlineto
            -103 callgsubr
            -402 17 callsubr
            34 32 0 -1 31 hvcurveto
            41 -1 50 -1 39 -3 -318 -216 583 callgsubr
            297 226 rcurveline
            return
          </CharString>
          <CharString index="129">
            hlineto
            -53 callgsubr
            return
          </CharString>
          <CharString index="130">
            87 -54 113 -63 -35 vvcurveto
            -21 -27 -26 -36 -19 vhcurveto
            13 -23 22 -27 20 -14 rrcurveto
            38 37 32 34 62 vvcurveto
            97 -99 41 -103 62 vhcurveto
            -96 57 -18 23 74 vvcurveto
            endchar
          </CharString>
          <CharString index="131">
            86 -38 65 -26 -78 vvcurveto
            -77 -61 -52 -94 -86 -52 42 85 -11 vhcurveto
            -49 -23 -30 -37 -80 106 -41 99 154 96 100 121 return
          </CharString>
          <CharString index="132">
            -46 callgsubr
            -24 26 vhcurveto
            return
          </CharString>
          <CharString index="133">
            224 -54 callgsubr
            return
          </CharString>
          <CharString index="134">
            -213 664 callgsubr
            47 76 170 callsubr
            390 -90 callgsubr
            -47 -422 rmoveto
            -14 -26 -30 -8 -30 hhcurveto
            -52 -47 32 69 32 10 27 17 20 hvcurveto
            252 -64 rmoveto
            -10 -23 -18 -22 -22 -19 -158 160 rcurveline
            7 18 21 4 23 hhcurveto
            49 30 -11 -14 21 hvcurveto
            12 44 110 callsubr
            -85 57 -77 95 -18 hvcurveto
            -132 -73 8 -23 22 -30 16 -12 rlinecurve
            327 214 rlineto
            return
          </CharString>
          <CharString index="135">
            70 callgsubr
            161 -90 callgsubr
            -636 13 callgsubr
            264 vlineto
            50 36 53 56 61 hhcurveto
            16 16 -5 -9 13 hvcurveto
            39 429 callgsubr
            -55 -44 -26 -25 -29 hvcurveto
            endchar
          </CharString>
          <CharString index="136">
            rmoveto
            -141 vlineto
            17 -7 34 7 4 32 5 56 rcurveline
            184 5 -279 -409 1 -13 6 -15 6 -9 rlinecurve
            371 144 hlineto
            -17 7 -34 -7 -3 -32 -7 -56 rcurveline
            -216 -5 275 405 -2 12 -7 18 -8 8 rlinecurve
            return
          </CharString>
          <CharString index="137">
            -52 397 callsubr
            636 callsubr
            hintmask 11110000
            269 694 rmoveto
            -115 -1 -101 -63 -117 vvcurveto
            -109 94 -42 103 -45 vhcurveto
            hintmask 11101000
            24 callsubr
            102 -69 37 -116 50 hvcurveto
            213 callgsubr
            hintmask 11110000
            82 37 -45 -74 hvcurveto
            37 -3 34 21 50 vvcurveto
            87 -108 27 -71 -2 vhcurveto
            return
          </CharString>
          <CharString index="138">
            rmoveto
            569 vlineto
            40 490 callgsubr
            569 callsubr
            -257 -319 259 vlineto
            -79 callsubr
            -74 6 rlineto
            255 320 -257 60 callgsubr
            203 100 callsubr
          </CharString>
          <CharString index="139">
            141 callgsubr
            -47 -33 hvcurveto
            13 -24 18 739 callsubr
            48 37 70 77 103 vvcurveto
            102 -72 69 -90 return
          </CharString>
          <CharString index="140">
            434 -129 vlineto
            -38 5 -41 -10 hvcurveto
            78 -3 rlineto
            return
          </CharString>
          <CharString index="141">
            171 callsubr
            -81 -119 hlineto
            -87 -52 -37 -72 return
          </CharString>
          <CharString index="142">
            115 65 80 103 3 hvcurveto
            1 47 -11 36 -19 27 31 -1 40 0 13 7 16 12 -5 39 -11 14 rrcurveto
            endchar
          </CharString>
          <CharString index="143">
            26 35 vhcurveto
            -125 -105 callsubr
          </CharString>
          <CharString index="144">
            69 335 callsubr
            401 259 callgsubr
            369 callsubr
            hvcurveto
            104 callgsubr
            return
          </CharString>
          <CharString index="145">
            1 vlineto
            52 2 rlineto
            196 7 96 -82 -214 vvcurveto
            -200 -94 -89 -181 5 vhcurveto
            -194 627 rmoveto
            -34 -3 -26 -25 1 hvcurveto
            72 -6 rlineto
            return
          </CharString>
          <CharString index="146">
            rmoveto
            -32 374 callsubr
            198 callsubr
            return
          </CharString>
          <CharString index="147">
            hhcurveto
            -55 100 callgsubr
            596 callgsubr
            return
          </CharString>
          <CharString index="148">
            hlineto
            -38 4 -40 -31 callgsubr
            -569 60 callgsubr
            return
          </CharString>
          <CharString index="149">
            717 callsubr
            -70 -52 -42 -60 246 callgsubr
            vhcurveto
            7 5 13 469 callgsubr
            169 callsubr
            30 -28 -58 -72 -54 -60 -143 -22 vhcurveto
            -113 15 89 -104 132 hhcurveto
            return
          </CharString>
          <CharString index="150">
            rmoveto
            -31 -28 -44 -25 -63 hhcurveto
            -77 -52 35 54 -26 hvcurveto
            100 22 47 58 68 373 callsubr
            188 324 callsubr
            -626 -107 callgsubr
            137 579 callgsubr
            -59 -41 -33 -97 -19 vhcurveto
            15 -98 59 -99 120 -19 -148 -83 rcurveline
            8 -24 22 -29 16 -12 270 177 rcurveline
            -137 -100 callgsubr
          </CharString>
          <CharString index="151">
            195 callgsubr
            29 10 231 callgsubr
            return
          </CharString>
          <CharString index="152">
            -11 -28 -16 rrcurveto
            -41 12 -41 36 58 vvcurveto
            53 35 35 36 657 callsubr
            return
          </CharString>
          <CharString index="153">
            -217 675 callgsubr
            168 81 vstem
            412 290 rmoveto
            -40 -20 -54 -52 -80 hhcurveto
            -77 -51 36 52 -26 hvcurveto
            98 23 47 58 68 -20 callsubr
            -24 26 vhcurveto
            172 -78 callgsubr
            -387 -107 callgsubr
            138 -4 callsubr
            -59 -40 -33 -97 -19 vhcurveto
            15 -99 61 -99 122 -18 -152 -83 rcurveline
            8 -24 22 -29 16 -12 321 209 rcurveline
            return
          </CharString>
          <CharString index="154">
            82 37 -45 -74 hvcurveto
            37 -3 34 21 50 vvcurveto
            87 -108 27 -71 -2 vhcurveto
            -115 -1 -101 -63 -117 vvcurveto
            -109 94 -42 103 -45 vhcurveto
            return
          </CharString>
          <CharString index="155">
            rmoveto
            -7 11 -10 13 -14 7 -135 -87 rcurveline
            720 callgsubr
            return
          </CharString>
          <CharString index="156">
            53 callsubr
            51 callgsubr
            hvcurveto
            return
          </CharString>
          <CharString index="157">
            -2 -44 hvcurveto
            -58 72 callgsubr
            return
          </CharString>
          <CharString index="158">
            -38 586 callgsubr
            45 25 121 vhcurveto
            74 226 callsubr
          </CharString>
          <CharString index="159">
            hhcurveto
            -8 -3 -20 -24 -5 -16 rrcurveto
            35 -32 37 -36 -45 vvcurveto
            -39 -27 -20 -38 -88 -69 115 81 -31 vhcurveto
            return
          </CharString>
          <CharString index="160">
            rmoveto
            -43 -37 -53 -33 -52 14 callsubr
            return
          </CharString>
          <CharString index="161">
            21 -42 14 513 callsubr
            -8 -15 vhcurveto
            -10 3 -17 5 -20 1 rrcurveto
            41 -26 -48 20 -42 hhcurveto
            -39 -40 -15 -32 -37 hvcurveto
            -82 -139 -68 callgsubr
            hvcurveto
            return
          </CharString>
          <CharString index="162">
            127 179 74 hstem
            176 70 vstem
            368 -25 callgsubr
            -378 4 callgsubr
            20 -44 11 -53 -40 vvcurveto
            -19 -3 -18 -8 -14 568 callsubr
            -20 -43 -105 189 -186 38 -32 hvcurveto
            15 6 30 21 11 17 -55 47 -103 96 -44 72 rrcurveto
            91 2 40 74 96 vvcurveto
            39 -5 55 -9 40 vhcurveto
            return
          </CharString>
          <CharString index="163">
            58 -1 34 -36 -1 -45 rrcurveto
            30 -4 34 17 42 vvcurveto
            1 62 -76 22 -60 1 rrcurveto
            return
          </CharString>
          <CharString index="164">
            -2 -45 hvcurveto
            -57 72 callgsubr
            30 -21 704 callsubr
            10 11 3 return
          </CharString>
          <CharString index="165">
            -1 callgsubr
            -10 39 vhcurveto
            return
          </CharString>
          <CharString index="166">
            135 -87 14 7 10 13 7 11 rlinecurve
            return
          </CharString>
          <CharString index="167">
            -133 107 callgsubr
            return
          </CharString>
          <CharString index="168">
            -268 360 77 100 74 hstem
            -36 429 170 callsubr
            335 -54 callsubr
            68 -285 rmoveto
            -20 -12 rlineto
            75 -75 -57 48 -82 145 callgsubr
            35 -25 -49 50 333 callgsubr
            290 197 rlineto
            return
          </CharString>
          <CharString index="169">
            vlineto
            -43 -4 -32 -2 0 -31 1 -18 rlinecurve
            257 hlineto
            220 122 119 227 224 -106 111 -238 hvcurveto
            endchar
          </CharString>
          <CharString index="170">
            245 rmoveto
            -30 -28 -44 -26 callgsubr
            return
          </CharString>
          <CharString index="171">
            hlineto
            -40 -1 -31 -9 -9 -15 117 callsubr
            return
          </CharString>
          <CharString index="172">
            hhcurveto
            5 4 522 callgsubr
            -363 -100 callgsubr
          </CharString>
          <CharString index="173">
            16 -54 127 11 rlineto
            13 1 35 -28 1 vhcurveto
            return
          </CharString>
          <CharString index="174">
            -209 19 -21 175 53 311 74 hstem
            76 88 vstem
            406 354 rmoveto
            -70 -30 -66 -58 -59 570 callgsubr
            219 -68 callsubr
            -393 -107 callgsubr
            86 -130 hlineto
            -126 50 -94 107 -14 vhcurveto
            -154 -113 337 callgsubr
            rlinecurve
            118 90 177 148 3 3 rrcurveto
            return
          </CharString>
          <CharString index="175">
            -38 51 -68 104 81 vvcurveto
            69 46 25 120 vhcurveto
            75 321 callsubr
            return
          </CharString>
          <CharString index="176">
            -107 callgsubr
            379 -10 callgsubr
            400 callgsubr
            return
          </CharString>
          <CharString index="177">
            -13 -20 -8 -10 -13 hvcurveto
            -115 40 84 -139 125 hhcurveto
            75 39 50 61 return
          </CharString>
          <CharString index="178">
            129 callsubr
            16 48 return
          </CharString>
          <CharString index="179">
            hhcurveto
            -41 -56 23 81 87 65 39 return
          </CharString>
          <CharString index="180">
            rmoveto
            -56 -38 -36 -55 -51 36 -35 54 55 38 36 54 1 hvcurveto
            52 1 -36 35 -55 hhcurveto
            -2 -44 rmoveto
            27 18 -17 -28 -27 -18 -17 -27 -27 -17 17 27 28 17 17 27 hvcurveto
            endchar
          </CharString>
          <CharString index="181">
            32 callgsubr
            14 return
          </CharString>
          <CharString index="182">
            39 160 callgsubr
            return
          </CharString>
          <CharString index="183">
            27 -35 -49 25 -60 hhcurveto
            return
          </CharString>
          <CharString index="184">
            -143 hlineto
            -134 44 -121 145 return
          </CharString>
          <CharString index="185">
            202 54 -80 callsubr
            return
          </CharString>
          <CharString index="186">
            209 callgsubr
            -32 39 41 vvcurveto
            48 32 28 47 vhcurveto
            return
          </CharString>
          <CharString index="187">
            hhcurveto
            -69 -45 -46 -50 -27 hvcurveto
            return
          </CharString>
          <CharString index="188">
            hvcurveto
            88 callgsubr
            return
          </CharString>
          <CharString index="189">
            726 callgsubr
            144 hvcurveto
            118 220 vlineto
            566 callsubr
            -619 -107 callgsubr
            86 -130 hlineto
            -125 49 -98 109 -13 vhcurveto
            -155 -111 337 callgsubr
            rlinecurve
            257 205 rlineto
            -187 -105 callsubr
          </CharString>
          <CharString index="190">
            273 callgsubr
            hintmask 10110000
            134 hmoveto
            2 callgsubr
            endchar
          </CharString>
          <CharString index="191">
            rmoveto
            -43 -20 -50 -52 -88 275 callsubr
            159 -90 callgsubr
            -374 -71 callsubr
            138 222 callgsubr
            71 56 33 22 27 hvcurveto
            endchar
          </CharString>
          <CharString index="192">
            407 callgsubr
            24 -37 12 -9 rrcurveto
            51 17 32 50 47 vvcurveto
            59 -46 83 -120 vhcurveto
            return
          </CharString>
          <CharString index="193">
            -77 -36 51 29 -11 hvcurveto
            -35 467 callgsubr
            -72 101 hhcurveto
            100 49 72 62 9 hvcurveto
            return
          </CharString>
          <CharString index="194">
            95 callsubr
            -1 595 callgsubr
            return
          </CharString>
          <CharString index="195">
            502 callgsubr
            -2 8 hhcurveto
            11 10 3 135 callsubr
            521 callsubr
            return
          </CharString>
          <CharString index="196">
            50 75 callsubr
            return
          </CharString>
          <CharString index="197">
            116 callgsubr
            63 return
          </CharString>
          <CharString index="198">
            -2 -5 18 hvcurveto
            57 -17 return
          </CharString>
          <CharString index="199">
            742 callsubr
            35 657 callsubr
            10 -15 8 -6 rrcurveto
            57 603 callsubr
            return
          </CharString>
          <CharString index="200">
            -107 callgsubr
            361 -133 hlineto
            25 -36 -50 19 -53 hhcurveto
            -98 -81 return
          </CharString>
          <CharString index="201">
            409 callgsubr
            297 callsubr
            hvcurveto
            return
          </CharString>
          <CharString index="202">
            20 -44 15 -57 -53 vvcurveto
            -20 return
          </CharString>
          <CharString index="203">
            -39 586 callgsubr
            46 25 120 vhcurveto
            74 -326 106 callsubr
          </CharString>
          <CharString index="204">
            -17 -7 -15 vhcurveto
            4 -12 -21 5 -24 hhcurveto
            -42 -33 511 callgsubr
            52 219 callsubr
            return
          </CharString>
          <CharString index="205">
            -15 callgsubr
            56 hhcurveto
            return
          </CharString>
          <CharString index="206">
            -70 callsubr
            -78 6 return
          </CharString>
          <CharString index="207">
            -70 callsubr
            endchar
          </CharString>
          <CharString index="208">
            260 callsubr
            135 -109 218 callsubr
            rlinecurve
            return
          </CharString>
          <CharString index="209">
            hlineto
            -40 -31 -9 -16 -9 hvcurveto
            319 callsubr
            16 11 39 36 vvcurveto
            41 36 0 -1 32 hvcurveto
            24 -1 24 -1 22 -1 16 -44 53 -44 17 -7 295 callsubr
            16 11 11 49 1 33 rrcurveto
            return
          </CharString>
          <CharString index="210">
            230 callgsubr
            6 -40 59 callgsubr
            66 return
          </CharString>
          <CharString index="211">
            546 callgsubr
            44 -19 39 vhcurveto
            557 vlineto
            endchar
          </CharString>
          <CharString index="212">
            20 14 vhcurveto
            2 9 -3 21 -6 4 rrcurveto
            -9 return
          </CharString>
          <CharString index="213">
            hlineto
            -104 callsubr
          </CharString>
          <CharString index="214">
            -7 -3 -20 355 callsubr
            return
          </CharString>
          <CharString index="215">
            rmoveto
            -44 -36 -53 -33 -53 hhcurveto
            return
          </CharString>
          <CharString index="216">
            -107 callgsubr
            81 -184 hlineto
            -141 84 -73 101 106 283 callsubr
            return
          </CharString>
          <CharString index="217">
            242 callsubr
            -91 -96 -54 -117 return
          </CharString>
          <CharString index="218">
            -35 -50 72 callsubr
            return
          </CharString>
          <CharString index="219">
            113 183 callgsubr
            return
          </CharString>
          <CharString index="220">
            49 36 -17 -23 30 hvcurveto
            return
          </CharString>
          <CharString index="221">
            267 509 -84 callgsubr
            return
          </CharString>
          <CharString index="222">
            -41 -31 -26 -44 -57 vvcurveto
            -146 178 -82 176 -40 vhcurveto
            9 12 8 23 4 17 rrcurveto
            -176 43 -117 59 100 vvcurveto
            88 89 47 99 return
          </CharString>
          <CharString index="223">
            vvcurveto
            -125 100 -98 137 48 41 11 18 32 vhcurveto
            30 -46 19 454 callsubr
            46 -43 39 rrcurveto
            20 25 11 30 593 callsubr
            -30 380 callsubr
            -28 13 740 callsubr
            -31 -8 -35 hhcurveto
            -82 -70 45 88 hvcurveto
            return
          </CharString>
          <CharString index="224">
            rrcurveto
            -4 -5 -2 -12 -10 132 callsubr
            return
          </CharString>
          <CharString index="225">
            241 rmoveto
            474 callgsubr
            return
          </CharString>
          <CharString index="226">
            -144 1 73 -100 134 hhcurveto
            94 89 51 39 10 -6 14 -10 6 hvcurveto
            return
          </CharString>
          <CharString index="227">
            35 rrcurveto
            21 21 13 26 28 vvcurveto
            35 -20 28 -26 -26 return
          </CharString>
          <CharString index="228">
            62 182 callgsubr
            return
          </CharString>
          <CharString index="229">
            -39 -86 callgsubr
            return
          </CharString>
          <CharString index="230">
            16 9 36 44 vvcurveto
            250 return
          </CharString>
          <CharString index="231">
            4 287 callsubr
            return
          </CharString>
          <CharString index="232">
            250 callgsubr
            -82 -61 -102 729 callsubr
            hvcurveto
            -128 vlineto
            -17 44 -19 39 vhcurveto
            return
          </CharString>
          <CharString index="233">
            13 15 11 40 35 vvcurveto
            1 42 36 494 callgsubr
            33 33 callgsubr
          </CharString>
          <CharString index="234">
            34 callsubr
            611 callgsubr
            hvcurveto
            return
          </CharString>
          <CharString index="235">
            hlineto
            144 callgsubr
            return
          </CharString>
          <CharString index="236">
            -42 -16 -14 42 -49 15 return
          </CharString>
          <CharString index="237">
            -474 vlineto
            -109 -28 -23 -39 -30 -13 20 28 -1 vhcurveto
            -31 1 -24 -17 -32 vvcurveto
            -48 51 -13 28 112 59 97 159 vhcurveto
            return
          </CharString>
          <CharString index="238">
            602 callgsubr
            40 35 vvcurveto
            return
          </CharString>
          <CharString index="239">
            110 callgsubr
            15 11 40 35 vvcurveto
            return
          </CharString>
          <CharString index="240">
            172 callgsubr
            48 -69 return
          </CharString>
          <CharString index="241">
            173 callsubr
            9 -15 8 -6 rrcurveto
            return
          </CharString>
          <CharString index="242">
            282 callsubr
            4 40 rrcurveto
            return
          </CharString>
          <CharString index="243">
            51 callgsubr
            vhcurveto
            return
          </CharString>
          <CharString index="244">
            hvcurveto
            -14 328 callgsubr
            return
          </CharString>
          <CharString index="245">
            247 callgsubr
            7 return
          </CharString>
          <CharString index="246">
            53 40 17 24 34 hvcurveto
            254 callgsubr
            return
          </CharString>
          <CharString index="247">
            398 callgsubr
            -29 hhcurveto
            -19 return
          </CharString>
          <CharString index="248">
            40 rrcurveto
            184 callgsubr
            return
          </CharString>
          <CharString index="249">
            -107 callgsubr
            164 hlineto
            22 -43 14 -49 -41 vvcurveto
            -19 -3 -14 -7 -14 vhcurveto
            3 -12 -21 4 -25 hhcurveto
            -41 -33 -20 -43 -30 17 -37 18 -32 hvcurveto
            48 -82 101 -114 39 -37 15 6 30 22 11 17 -56 47 -97 104 -44 72 return
          </CharString>
          <CharString index="250">
            rmoveto
            211 -207 hlineto
            -44 -38 -18 -33 -11 vhcurveto
            6 -25 20 -36 15 423 callgsubr
            return
          </CharString>
          <CharString index="251">
            433 callsubr
            hvcurveto
            296 callsubr
            return
          </CharString>
          <CharString index="252">
            -21 66 63 266 74 74 74 hstemhm
            30 73 -22 67 175 82 -73 137 -98 56 return
          </CharString>
          <CharString index="253">
            47 -96 251 callgsubr
            return
          </CharString>
          <CharString index="254">
            611 240 callsubr
            return
          </CharString>
          <CharString index="255">
            -14 7 -135 -87 rcurveline
            -136 87 return
          </CharString>
          <CharString index="256">
            126 -121 67 return
          </CharString>
          <CharString index="257">
            77 -49 -52 48 -71 hhcurveto
            -48 -53 -19 -20 -31 253 callsubr
            12 16 51 33 43 hhcurveto
            62 54 -77 -82 43 hvcurveto
            49 -50 -65 44 -56 hhcurveto
            -47 -57 -27 -20 -23 570 callsubr
            20 52 32 45 hhcurveto
            return
          </CharString>
          <CharString index="258">
            34 -17 -45 63 -81 438 callsubr
            60 -80 73 93 vvcurveto
            60 34 45 56 50 39 -37 -35 17 vhcurveto
            -7 -22 -5 -49 callsubr
            return
          </CharString>
          <CharString index="259">
            -38 -102 -97 84 -128 57 -74 81 callsubr
            return
          </CharString>
          <CharString index="260">
            40 35 vvcurveto
            1 41 37 -1 return
          </CharString>
          <CharString index="261">
            rmoveto
            207 -54 callsubr
            -610 -107 callgsubr
            321 -97 hlineto
            177 callsubr
            130 116 78 140 105 -63 57 -80 24 hvcurveto
            return
          </CharString>
          <CharString index="262">
            -60 -164 46 hstem
            137 65 vstem
            257 39 rmoveto
            -59 -17 -61 -43 -66 vvcurveto
            -47 38 -30 54 35 34 14 105 callsubr
            -12 -18 -13 -26 hhcurveto
            -28 -19 15 33 39 25 27 47 19 hvcurveto
            endchar
          </CharString>
          <CharString index="263">
            42 44 23 -39 -31 9 vhcurveto
            36 14 rlineto
            54 -3 -36 71 -81 hhcurveto
            -72 -43 -52 -72 return
          </CharString>
          <CharString index="264">
            192 callgsubr
            36 3 28 12 21 21 rrcurveto
            return
          </CharString>
          <CharString index="265">
            -63 246 callsubr
            7 -3 8 hhcurveto
            11 424 callsubr
            18 1 20 hhcurveto
            return
          </CharString>
          <CharString index="266">
            hhcurveto
            -54 -37 30 44 56 67 33 75 18 hvcurveto
            -7 24 return
          </CharString>
          <CharString index="267">
            64 -82 285 callgsubr
            -127 120 -108 86 -63 hvcurveto
            14 -81 callgsubr
            60 34 45 56 -8 callsubr
            return
          </CharString>
          <CharString index="268">
            -26 -38 -51 -42 -29 -51 -31 hvcurveto
            -26 19 return
          </CharString>
          <CharString index="269">
            106 123 callgsubr
            362 -126 hlineto
            20 -31 -40 17 -53 hhcurveto
            -83 -88 -48 -103 hvcurveto
            hintmask 10111110
            729 callgsubr
            vhcurveto
            226 callgsubr
          </CharString>
          <CharString index="270">
            rmoveto
            -7 vlineto
            -186 -190 41 -35 244 204 5 18 0 12 -5 19 rlinecurve
            -244 204 -38 -36 rlineto
            return
          </CharString>
          <CharString index="271">
            rmoveto
            -38 36 -244 -204 -5 -19 0 -12 5 -18 rlinecurve
            244 -204 41 35 -186 190 rlineto
            7 vlineto
            return
          </CharString>
          <CharString index="272">
            hhcurveto
            -52 -48 25 55 76 85 32 708 callgsubr
            29 -11 26 -14 19 rrcurveto
            return
          </CharString>
          <CharString index="273">
            408 callsubr
            16 11 vvcurveto
            268 callsubr
            return
          </CharString>
          <CharString index="274">
            -7 -27 -9 -24 -11 rrcurveto
            -32 6 -41 27 52 vvcurveto
            24 8 23 return
          </CharString>
          <CharString index="275">
            1 -41 1 rrcurveto
            -34 198 callsubr
            return
          </CharString>
          <CharString index="276">
            -18 377 callgsubr
            30 22 33 38 return
          </CharString>
          <CharString index="277">
            vstem
            137 callgsubr
            return
          </CharString>
          <CharString index="278">
            -107 callgsubr
            339 return
          </CharString>
          <CharString index="279">
            -76 -74 -62 -15 vhcurveto
            25 -20 return
          </CharString>
          <CharString index="280">
            -14 -27 -19 vhcurveto
            3 -9 return
          </CharString>
          <CharString index="281">
            106 hlineto
            27 -11 29 -14 393 callsubr
            -90 27 -49 47 -33 vhcurveto
            hintmask 11101000
            -50 -23 -35 -43 -59 vvcurveto
            -94 82 -76 125 86 72 39 55 45 vhcurveto
            -12 19 -17 18 return
          </CharString>
          <CharString index="282">
            36 22 -5 11 hhcurveto
            13 2 26 650 callgsubr
          </CharString>
          <CharString index="283">
            hintmask 11011110
            -52 -103 533 callgsubr
            101 hvcurveto
            51 15 -3 26 hhcurveto
            11 25 30 17 hvcurveto
            98 -41 -28 callsubr
            -43 51 -14 hvcurveto
            endchar
          </CharString>
          <CharString index="284">
            234 callsubr
            -127 107 -96 147 return
          </CharString>
          <CharString index="285">
            -49 -35 -51 -34 -48 241 callsubr
            return
          </CharString>
          <CharString index="286">
            3 -10 -10 2 -12 hhcurveto
            -71 -46 -46 -50 -27 hvcurveto
            return
          </CharString>
          <CharString index="287">
            41 -50 16 16 48 270 callsubr
            hvcurveto
            return
          </CharString>
          <CharString index="288">
            -54 3 -22 55 -60 2 -49 2 -43 -38 -15 -67 return
          </CharString>
          <CharString index="289">
            716 callgsubr
            -26 -62 hhcurveto
            -77 return
          </CharString>
          <CharString index="290">
            124 callgsubr
            31 80 return
          </CharString>
          <CharString index="291">
            79 11 38 98 72 hhcurveto
            return
          </CharString>
          <CharString index="292">
            vvcurveto
            -142 187 -79 135 -35 vhcurveto
            8 10 8 24 3 19 rrcurveto
            -121 34 -138 52 103 vvcurveto
            return
          </CharString>
          <CharString index="293">
            44 82 35 37 hhcurveto
            26 13 -14 -26 -52 -53 396 callgsubr
            return
          </CharString>
          <CharString index="294">
            54 -70 133 callsubr
            107 return
          </CharString>
          <CharString index="295">
            136 87 rcurveline
            59 callsubr
            return
          </CharString>
          <CharString index="296">
            283 70 96 74 hstem
            36 77 198 82 76 67 vstem
            return
          </CharString>
          <CharString index="297">
            -62 -62 vvcurveto
            -50 -33 return
          </CharString>
          <CharString index="298">
            537 callsubr
            78 callsubr
            return
          </CharString>
          <CharString index="299">
            91 callgsubr
            32 31 4 7 27 hvcurveto
            -238 -105 callsubr
          </CharString>
          <CharString index="300">
            hhcurveto
            9 206 callsubr
            return
          </CharString>
          <CharString index="301">
            -41 -19 -32 -34 -25 vhcurveto
            16 -21 26 -18 23 -6 rrcurveto
            29 21 28 46 55 vvcurveto
            86 -58 82 -140 return
          </CharString>
          <CharString index="302">
            21 -50 21 7 36 27 8 14 -15 26 -43 54 -36 38 rrcurveto
            94 6 return
          </CharString>
          <CharString index="303">
            490 60 rmoveto
            33 callsubr
            return
          </CharString>
          <CharString index="304">
            -34 189 callgsubr
            10 3 return
          </CharString>
          <CharString index="305">
            -37 565 callgsubr
            return
          </CharString>
          <CharString index="306">
            vlineto
            26 callsubr
            return
          </CharString>
          <CharString index="307">
            8 8 hvcurveto
            13 413 callsubr
            return
          </CharString>
          <CharString index="308">
            -156 hlineto
            -136 58 -103 128 return
          </CharString>
          <CharString index="309">
            2 -17 -16 1 -16 hhcurveto
            return
          </CharString>
          <CharString index="310">
            -68 -29 -60 -37 -59 hhcurveto
            -39 -54 667 callsubr
            44 26 -7 -19 27 hvcurveto
            20 41 rlineto
            29 -25 -49 23 -65 hhcurveto
            -84 -87 -48 -103 -93 79 -88 110 66 49 31 45 38 hvcurveto
            return
          </CharString>
          <CharString index="311">
            -18 -2 -22 18 1 34 rrcurveto
            45 1 39 13 99 51 12 426 callsubr
            102 -27 rmoveto
            -13 -51 -41 -16 -14 -82 callsubr
            endchar
          </CharString>
          <CharString index="312">
            vlineto
            42 193 callgsubr
          </CharString>
          <CharString index="313">
            9 -71 callgsubr
            rrcurveto
            89 34 104 86 111 vvcurveto
            44 -16 35 -25 26 vhcurveto
            149 -521 hlineto
            -17 return
          </CharString>
          <CharString index="314">
            79 11 38 98 71 hhcurveto
            40 21 -28 -28 12 hvcurveto
            -34 -5 -16 -13 -24 vvcurveto
            -53 70 -60 21 -8 vhcurveto
            -1 4 7 -1 8 hhcurveto
            11 12 2 6 8 hvcurveto
            15 10 642 callsubr
            return
          </CharString>
          <CharString index="315">
            235 callgsubr
            22 16 10 hvcurveto
            268 callsubr
            rrcurveto
            return
          </CharString>
          <CharString index="316">
            -34 -33 -7 -13 -30 hvcurveto
            -27 25 -9 25 18 vvcurveto
            29 return
          </CharString>
          <CharString index="317">
            -76 29 -50 21 1 43 rrcurveto
            38 39 28 52 -1 vhcurveto
            return
          </CharString>
          <CharString index="318">
            83 197 rmoveto
            344 -78 callgsubr
            return
          </CharString>
          <CharString index="319">
            -123 hlineto
            -143 57 -106 122 45 43 return
          </CharString>
          <CharString index="320">
            380 callgsubr
            rrcurveto
            16 return
          </CharString>
          <CharString index="321">
            149 callsubr
            227 74 return
          </CharString>
          <CharString index="322">
            -67 159 127 return
          </CharString>
          <CharString index="323">
            rmoveto
            148 -78 callgsubr
            -564 -107 callgsubr
            334 -88 hlineto
            269 callgsubr
            -153 -84 -83 -113 -125 100 -98 136 hvcurveto
            return
          </CharString>
          <CharString index="324">
            47 -62 105 rrcurveto
            105 367 callgsubr
            return
          </CharString>
          <CharString index="325">
            347 callgsubr
            14 return
          </CharString>
          <CharString index="326">
            -87 97 -110 return
          </CharString>
          <CharString index="327">
            -107 callgsubr
            126 -155 648 callgsubr
            -9 -9 -15 rrcurveto
            -3 -5 -2 -12 -10 423 callsubr
            9 36 59 vvcurveto
            return
          </CharString>
          <CharString index="328">
            50 35 55 58 60 267 callsubr
            -65 -62 -48 362 callgsubr
          </CharString>
          <CharString index="329">
            249 callsubr
            13 66 -31 10 rcurveline
            -8 -28 -23 -22 -34 1 rrcurveto
            return
          </CharString>
          <CharString index="330">
            57 callsubr
            8 8 hvcurveto
            13 13 279 callgsubr
            return
          </CharString>
          <CharString index="331">
            -15 callsubr
            endchar
          </CharString>
          <CharString index="332">
            -521 -43 callsubr
          </CharString>
          <CharString index="333">
            -326 -43 callsubr
          </CharString>
          <CharString index="334">
            244 -12 callgsubr
            return
          </CharString>
          <CharString index="335">
            hlineto
            2 -27 15 -34 17 -28 263 callsubr
            return
          </CharString>
          <CharString index="336">
            74 276 75 81 74 hstemhm
            33 73 220 82 -73 137 return
          </CharString>
          <CharString index="337">
            -145 0 328 callsubr
            390 50.5 return
          </CharString>
          <CharString index="338">
            -229 vlineto
            -50 -34 -51 -34 -49 hhcurveto
            -60 -18 257 callgsubr
            return
          </CharString>
          <CharString index="339">
            634 callsubr
            11 40 35 vvcurveto
            return
          </CharString>
          <CharString index="340">
            0 51 390 53 171 53 hstem
            114 84 return
          </CharString>
          <CharString index="341">
            584 callgsubr
            -154 -99 -71 -125 return
          </CharString>
          <CharString index="342">
            -147 502 rlineto
            -66 hlineto
            -166 -500 rlineto
            return
          </CharString>
          <CharString index="343">
            281 callsubr
            -41 32 return
          </CharString>
          <CharString index="344">
            -107 callgsubr
            329 return
          </CharString>
          <CharString index="345">
            154 callgsubr
            -62 hhcurveto
            return
          </CharString>
          <CharString index="346">
            72 callsubr
            74 return
          </CharString>
          <CharString index="347">
            rmoveto
            -107 callsubr
            return
          </CharString>
          <CharString index="348">
            hhcurveto
            -60 -17 257 callgsubr
            return
          </CharString>
          <CharString index="349">
            468 callgsubr
            -51 hhcurveto
            return
          </CharString>
          <CharString index="350">
            rmoveto
            101 callgsubr
            return
          </CharString>
          <CharString index="351">
            -40 -34 -27 -34 50 -28 return
          </CharString>
          <CharString index="352">
            -184 vlineto
            -17 44 -19 return
          </CharString>
          <CharString index="353">
            30 -21 vhcurveto
            -3 5 return
          </CharString>
          <CharString index="354">
            vhcurveto
            -7 -21 -4 return
          </CharString>
          <CharString index="355">
            112 595 rmoveto
            7 22 15 31 25 18 rrcurveto
            6 -16 16 -6 -4 vhcurveto
            -42 -17 -51 -70 -58 vvcurveto
            -37 25 -25 34 37 22 24 37 27 -18 26 -32 4 vhcurveto
            return
          </CharString>
          <CharString index="356">
            48 -2 26 -52 66 -2 64 -3 35 43 return
          </CharString>
          <CharString index="357">
            297 callsubr
            vhcurveto
            return
          </CharString>
          <CharString index="358">
            -48 26 55 76 85 31 70 hvcurveto
            35 hlineto
            return
          </CharString>
          <CharString index="359">
            -85 -60 -54 -72 -60 45 -50 42 -28 vhcurveto
            return
          </CharString>
          <CharString index="360">
            hvcurveto
            9 -29 24 -42 7 -7 rrcurveto
            return
          </CharString>
          <CharString index="361">
            8 -3 8 hhcurveto
            10 11 4 8 return
          </CharString>
          <CharString index="362">
            643 callgsubr
            -5 -2 -12 return
          </CharString>
          <CharString index="363">
            hlineto
            -8 -3 -19 355 callsubr
            return
          </CharString>
          <CharString index="364">
            -128 vlineto
            -17 return
          </CharString>
          <CharString index="365">
            -64 -41 551 callgsubr
            1 -6 1 -5 1 -6 rrcurveto
            -3 -19 -20 -1 -23 601 callsubr
            -9 50 -10 39 vhcurveto
            return
          </CharString>
          <CharString index="366">
            hhcurveto
            11 292 callsubr
            return
          </CharString>
          <CharString index="367">
            rlinecurve
            162 121 return
          </CharString>
          <CharString index="368">
            hstemhm
            106 82 hintmask 11011000
            -36 610 rmoveto
            -27 12 -30 475 callsubr
            30 -15 17 vhcurveto
            return
          </CharString>
          <CharString index="369">
            492 callgsubr
            49 -13 -14 -48 -40 -16 vhcurveto
            endchar
          </CharString>
          <CharString index="370">
            121 callgsubr
            rrcurveto
            return
          </CharString>
          <CharString index="371">
            74 -48 61 hstemhm
            0 68 -20 77 111 126 -86 68 return
          </CharString>
          <CharString index="372">
            -105 -48 -27 -40 -78 -18 81 80 vhcurveto
            177 184 vlineto
            return
          </CharString>
          <CharString index="373">
            -3 26 hhcurveto
            13 5 18 22 2 17 rrcurveto
            endchar
          </CharString>
          <CharString index="374">
            hhcurveto
            38 39 -22 -60 -78 return
          </CharString>
          <CharString index="375">
            329 callgsubr
            22 return
          </CharString>
          <CharString index="376">
            62 397 callgsubr
            return
          </CharString>
          <CharString index="377">
            44 10 17 -44 50 -13 return
          </CharString>
          <CharString index="378">
            210 callsubr
            hintmask 11110000
            56 callsubr
            return
          </CharString>
          <CharString index="379">
            rmoveto
            105 148 rlineto
            -148 vlineto
            118 hmoveto
            -50 238 hlineto
            -16 2 -24 -1 -17 -4 -172 -241 rcurveline
            2 -14 6 -11 8 -10 rrcurveto
            145 return
          </CharString>
          <CharString index="380">
            898 232 callgsubr
            99 517 callsubr
            -1 -51 43 -93 hhcurveto
            -46 -62 -14 -31 -67 hvcurveto
            return
          </CharString>
          <CharString index="381">
            699 callgsubr
            13 -19 rrcurveto
            130 hlineto
            -24 -18 -19 -33 -40 vvcurveto
            return
          </CharString>
          <CharString index="382">
            hhcurveto
            -77 -53 35 54 -25 hvcurveto
            99 23 47 62 72 -20 callsubr
            -24 26 vhcurveto
            return
          </CharString>
          <CharString index="383">
            323 callsubr
            -42 return
          </CharString>
          <CharString index="384">
            27 56 584 callsubr
            78 87 vvcurveto
            return
          </CharString>
          <CharString index="385">
            -16 -6 -19 -25 vvcurveto
            -54 28 -48 68 -25 vhcurveto
            return
          </CharString>
          <CharString index="386">
            24 -33 -33 -24 -24 -33 -33 24 -23 33 hvcurveto
            return
          </CharString>
          <CharString index="387">
            36 45 36 48 hhcurveto
            16 13 -3 -6 10 hvcurveto
            return
          </CharString>
          <CharString index="388">
            58 20 285 callsubr
            return
          </CharString>
          <CharString index="389">
            8 593 callgsubr
            48 return
          </CharString>
          <CharString index="390">
            58 77 118 vhcurveto
            203 return
          </CharString>
          <CharString index="391">
            36 3 29 12 21 21 rrcurveto
            return
          </CharString>
          <CharString index="392">
            30 35 40 vvcurveto
            53 return
          </CharString>
          <CharString index="393">
            -18 -32 vvcurveto
            -39 45 -63 30 -21 704 callsubr
            10 11 3 9 8 hvcurveto
            13 12 14 50 148 callgsubr
            return
          </CharString>
          <CharString index="394">
            -40 -10 1 hvcurveto
            return
          </CharString>
          <CharString index="395">
            403 537 rmoveto
            108 -78 callgsubr
            -508 -71 callsubr
            319 -82 hlineto
            1 -13 -80 0 -13 hhcurveto
            return
          </CharString>
          <CharString index="396">
            -18 17 641 callsubr
            -13 -37 49 -75 hhcurveto
            -80 -57 -56 -69 -11 hvcurveto
            return
          </CharString>
          <CharString index="397">
            450 callgsubr
            11 16 -44 50 -13 hvcurveto
            return
          </CharString>
          <CharString index="398">
            rmoveto
            443 callsubr
            -14 41 -49 16 15 49 698 callgsubr
            return
          </CharString>
          <CharString index="399">
            11 3 9 8 hvcurveto
            13 12 279 callgsubr
            return
          </CharString>
          <CharString index="400">
            -17 -21 4 -15 hhcurveto
            -54 -29 -23 -48 -92 147 -184 230 -30 hvcurveto
            return
          </CharString>
          <CharString index="401">
            232 callsubr
            1 return
          </CharString>
          <CharString index="402">
            rrcurveto
            -2 5 744 callgsubr
            11 13 597 callgsubr
            return
          </CharString>
          <CharString index="403">
            -1 -10 -10 -1 -11 304 callgsubr
            return
          </CharString>
          <CharString index="404">
            87 65 39 74 48 36 -17 -22 30 return
          </CharString>
          <CharString index="405">
            -26 -30 -28 -27 -38 -15 vhcurveto
            7 -22 return
          </CharString>
          <CharString index="406">
            114 325 callsubr
            return
          </CharString>
          <CharString index="407">
            513 callsubr
            -7 -15 vhcurveto
            return
          </CharString>
          <CharString index="408">
            67 76 83 60 251 74 -57 70 return
          </CharString>
          <CharString index="409">
            -105 -47 -26 -42 707 callsubr
            return
          </CharString>
          <CharString index="410">
            hvcurveto
            374 callgsubr
            return
          </CharString>
          <CharString index="411">
            hhcurveto
            -40 -54 23 68 71 53 37 return
          </CharString>
          <CharString index="412">
            -1 -5 0 -6 -6 vvcurveto
            return
          </CharString>
          <CharString index="413">
            25 26 31 31 -25 26 return
          </CharString>
          <CharString index="414">
            hhcurveto
            40 36 -24 -51 -50 return
          </CharString>
          <CharString index="415">
            690 116 62 7 123 -104 129 48 122 callgsubr
            275 82 150 80 107 82 hintmask 1001111111000000
            return
          </CharString>
          <CharString index="416">
            rmoveto
            28 -3 31 6 hvcurveto
            -59 4 rlineto
            278 vlineto
            18 -8 9 -12 -9 -16 -1 -6 -11 vhcurveto
            -87 -47 rlineto
            -7 14 -29 21 6 vhcurveto
            40 return
          </CharString>
          <CharString index="417">
            15 rrcurveto
            -46 -34 -61 -49 -92 hhcurveto
            -77 48 callgsubr
            endchar
          </CharString>
          <CharString index="418">
            rmoveto
            -60 273 60 vlineto
            endchar
          </CharString>
          <CharString index="419">
            -48 -39 -67 -35 -51 556 callsubr
            366 callsubr
            return
          </CharString>
          <CharString index="420">
            hlineto
            -176 -96 -39 -116 412 callgsubr
            hvcurveto
            10 2 27 16 11 14 rrcurveto
            -38 51 -69 106 81 vvcurveto
            78 67 28 107 return
          </CharString>
          <CharString index="421">
            hhcurveto
            -130 524 callgsubr
            -38 49 -68 107 78 vvcurveto
            67 47 28 118 return
          </CharString>
          <CharString index="422">
            428 callsubr
            -11 -14 22 hvcurveto
            11 503 callsubr
            return
          </CharString>
          <CharString index="423">
            -160 -20 252 callgsubr
            -145 vlineto
            15 -32 -33 9 -45 hhcurveto
            -159 -85 -115 -167 3 hvcurveto
            return
          </CharString>
          <CharString index="424">
            hlineto
            -28 12 -28 callgsubr
            return
          </CharString>
          <CharString index="425">
            40 callsubr
            -15 14 return
          </CharString>
          <CharString index="426">
            -4 -5 -2 -11 -11 110 callgsubr
            return
          </CharString>
          <CharString index="427">
            711 callgsubr
            -46 hhcurveto
            -40 -53 667 callsubr
            43 32 return
          </CharString>
          <CharString index="428">
            -326 22 callsubr
            return
          </CharString>
          <CharString index="429">
            -70 callsubr
            -73 6 rlineto
            return
          </CharString>
          <CharString index="430">
            -8 -9 -16 rrcurveto
            465 callsubr
            return
          </CharString>
          <CharString index="431">
            hlineto
            99 callgsubr
            return
          </CharString>
          <CharString index="432">
            74 hstemhm
            82 87 212 82 return
          </CharString>
          <CharString index="433">
            383 callgsubr
            104 hvcurveto
            return
          </CharString>
          <CharString index="434">
            138 callsubr
            hvcurveto
            13 return
          </CharString>
          <CharString index="435">
            53.5 return
          </CharString>
          <CharString index="436" raw="1">
            691e7d8a 720b  
          </CharString>
          <CharString index="437">
            40 17 25 34 return
          </CharString>
          <CharString index="438">
            -28 15 -15 14 31 vvcurveto
            31 19 24 37 52 12 -49 -72 vhcurveto
            -113 vlineto
            45 -24 -46 32 -53 hhcurveto
            -68 -45 -45 -50 -28 hvcurveto
            return
          </CharString>
          <CharString index="439">
            616 callsubr
            -12 hvcurveto
            -34 467 callgsubr
            -72 101 hhcurveto
            99 50 72 62 9 hvcurveto
            return
          </CharString>
          <CharString index="440">
            537 74 -37 48 hstemhm
            66 79 0 79 31 67 return
          </CharString>
          <CharString index="441">
            575 callsubr
            -95 -56 -66 -72 -58 return
          </CharString>
          <CharString index="442">
            278 72 98 74 hstem
            36 76 207 82 vstem
            return
          </CharString>
          <CharString index="443">
            2 -41 646 callgsubr
            return
          </CharString>
          <CharString index="444">
            45 56 50 39 -38 -35 return
          </CharString>
          <CharString index="445">
            94 -15 60 581 53 return
          </CharString>
          <CharString index="446">
            548 callsubr
            -25 15 rrcurveto
            -46 -34 -61 -49 -92 hhcurveto
            -77 -74 41 90 return
          </CharString>
          <CharString index="447">
            hvcurveto
            -170 -85 -27 -14 -18 -19 7 -26 rlinecurve
            10 -47 59 -48 25 -1 16 -1 16 15 1 11 1 19 -12 46 -5 22 return
          </CharString>
          <CharString index="448">
            -107 callgsubr
            64 -170 hlineto
            -18 -35 -45 -11 -49 hhcurveto
            -29 -27 4 5 -21 hvcurveto
            48 36 31 42 58 vvcurveto
            return
          </CharString>
          <CharString index="449">
            35 -43 45 -45 41 rrcurveto
            22 24 13 31 34 vvcurveto
            40 -19 27 -30 return
          </CharString>
          <CharString index="450">
            389 111 rmoveto
            -37 -41 -34 -22 -49 hhcurveto
            -97 -41 86 108 return
          </CharString>
          <CharString index="451">
            -236 395 callgsubr
            return
          </CharString>
          <CharString index="452">
            -16 rrcurveto
            -4 -5 -2 return
          </CharString>
          <CharString index="453">
            -47 539 callgsubr
            return
          </CharString>
          <CharString index="454">
            10 28 18 21 hvcurveto
            return
          </CharString>
          <CharString index="455">
            -160 -18 252 callgsubr
            -386 627 callsubr
            return
          </CharString>
          <CharString index="456">
            -16 vhcurveto
            361 -133 hlineto
            25 -36 -50 19 -53 hhcurveto
            -98 -81 -61 -102 730 callsubr
            hvcurveto
            return
          </CharString>
          <CharString index="457">
            -128 rcurveline
            -27 -13 -20 -20 8 -27 10 -46 61 -53 26 -1 rrcurveto
            16 20 16 11 2 hvcurveto
            18 -14 51 -5 21 vhcurveto
            return
          </CharString>
          <CharString index="458">
            70 -91 -38 357 callgsubr
            vhcurveto
            endchar
          </CharString>
          <CharString index="459">
            -152 -88 -117 -163 1 return
          </CharString>
          <CharString index="460">
            -32 callsubr
            91 return
          </CharString>
          <CharString index="461">
            -36 17 -12 260 callsubr
            return
          </CharString>
          <CharString index="462">
            -26 -4 -15 rrcurveto
            return
          </CharString>
          <CharString index="463">
            -2 -2 -15 hvcurveto
            return
          </CharString>
          <CharString index="464">
            30 -11 -14 22 hvcurveto
            hintmask 0101011110000000
            11 44 242 callsubr
            400 callgsubr
            -107 675 callsubr
            return
          </CharString>
          <CharString index="465">
            9 -20 -22 5 -25 hhcurveto
            -38 -40 -16 -33 -37 hvcurveto
            -83 -137 108 callsubr
            -51 -44 32 67 hvcurveto
            return
          </CharString>
          <CharString index="466">
            vstem
            171 537 rmoveto
            211 -221 hlineto
            -49 621 callsubr
            103 rmoveto
            return
          </CharString>
          <CharString index="467">
            408 callgsubr
            37 35 -31 -79 -146 -117 -118 -144 -74 -37 33 49 64 return
          </CharString>
          <CharString index="468">
            -111 52 callsubr
            return
          </CharString>
          <CharString index="469">
            -15 55.5 -55.5 67 395 62 return
          </CharString>
          <CharString index="470">
            -153 -15 59 407 58 hstemhm
            40 72 182 64 -50 74 return
          </CharString>
          <CharString index="471">
            531 callgsubr
            vhcurveto
            676 callgsubr
            return
          </CharString>
          <CharString index="472">
            vvcurveto
            50 -39 83 -72 -51 -92 -34 -1 -20 vhcurveto
            return
          </CharString>
          <CharString index="473">
            224 302 callgsubr
            return
          </CharString>
          <CharString index="474">
            -52 -223 67 599 51 hstem
            27 64 vstem
            return
          </CharString>
          <CharString index="475">
            -134 -122 8 -14 8 -9 14 -8 rlinecurve
            return
          </CharString>
          <CharString index="476">
            -127 103 -92 141 104 79 51 54 43 return
          </CharString>
          <CharString index="477">
            12 18 12 30 3 21 -130 27 return
          </CharString>
          <CharString index="478">
            -15 22 hvcurveto
            11 45 646 callsubr
            return
          </CharString>
          <CharString index="479">
            394 21 -21 616 -20 30 53 return
          </CharString>
          <CharString index="480">
            -20 callsubr
            -25 26 vhcurveto
            return
          </CharString>
          <CharString index="481">
            336 callsubr
            -35 return
          </CharString>
          <CharString index="482">
            hlineto
            37 -4 40 10 -1 hvcurveto
            return
          </CharString>
          <CharString index="483">
            43 11 718 callgsubr
            return
          </CharString>
          <CharString index="484">
            -29 -11 -26 -50 -85 hhcurveto
            return
          </CharString>
          <CharString index="485">
            75 -29 vhcurveto
            8 7 8 return
          </CharString>
          <CharString index="486">
            74 -37 37 -37 48 hstemhm
            return
          </CharString>
          <CharString index="487">
            -31 -57 -29 -44 -13 6 return
          </CharString>
          <CharString index="488">
            -7 -17 -4 -18 -18 vvcurveto
            return
          </CharString>
          <CharString index="489">
            74 552 callgsubr
            return
          </CharString>
          <CharString index="490">
            323 callgsubr
            hstemhm
            18 68 -47 81 195 82 -1 61 -5 10 hintmask 11101010
            230 return
          </CharString>
          <CharString index="491">
            554 callgsubr
            -1 22 17 10 vvcurveto
            268 callsubr
            return
          </CharString>
          <CharString index="492">
            vvcurveto
            -76 53 -52 73 -17 vhcurveto
            -140 -72 174 callgsubr
            rlinecurve
            293 175 rlineto
            -130 vlineto
            -17 return
          </CharString>
          <CharString index="493">
            686 callsubr
            188 -323 -43 callsubr
          </CharString>
          <CharString index="494">
            -26 -16 -19 -19 7 -26 12 -47 62 -51 25 -1 rrcurveto
            17 1 21 17 11 vvcurveto
            -1 19 -14 49 -5 21 return
          </CharString>
          <CharString index="495">
            -26 -17 -17 -19 9 -28 12 -45 69 -46 24 -1 17 1 19 19 -1 11 rrcurveto
            19 -16 50 -7 21 vhcurveto
            return
          </CharString>
          <CharString index="496">
            rmoveto
            405 callgsubr
            return
          </CharString>
          <CharString index="497">
            hhcurveto
            31 22 -8 -26 -39 -59 -32 -88 -19 hvcurveto
            -104 17 69 -110 145 hhcurveto
            51 41 16 17 28 hvcurveto
            return
          </CharString>
          <CharString index="498">
            505 callsubr
            -23 44 -97 101 -57 46 rrcurveto
            return
          </CharString>
          <CharString index="499">
            79 11 42 98 74 65 callsubr
          </CharString>
          <CharString index="500">
            18 vhcurveto
            -558 -107 callgsubr
            81 -104 hlineto
            return
          </CharString>
          <CharString index="501">
            hhcurveto
            294 callsubr
            return
          </CharString>
          <CharString index="502">
            633 callsubr
            -48 -37 -34 -55 -15 vhcurveto
            return
          </CharString>
          <CharString index="503">
            11 26 27 15 hvcurveto
            endchar
          </CharString>
          <CharString index="504">
            -15 61 587 61 return
          </CharString>
          <CharString index="505">
            16 13 32 3 21 return
          </CharString>
          <CharString index="506">
            31 -25 26 -31 -33 return
          </CharString>
          <CharString index="507">
            -41 -46 -45 -27 40 85 vhcurveto
            hintmask 0101111111100000
            82 24 46 49 vhcurveto
            1 47 rmoveto
            -88 -48 -60 -115 hvcurveto
            return
          </CharString>
          <CharString index="508">
            59 126 68 -60 65 299 callsubr
            185 88 211 83 227 64 return
          </CharString>
          <CharString index="509">
            107 117 callgsubr
            return
          </CharString>
          <CharString index="510">
            568 116 62 55 69 79 67 89 74 hstem
            172 67 52 76 272 82 218 82 vstem
            return
          </CharString>
          <CharString index="511">
            hhcurveto
            -51 -54 26 79 86 62 39 72 36 31 -8 -17 27 hvcurveto
            14 46 rlineto
            30 -29 -46 21 -57 hhcurveto
            return
          </CharString>
          <CharString index="512">
            48 28 -51 66 hhcurveto
            64 34 45 66 10 hvcurveto
            -31 9 rlineto
            -29 -7 -22 -22 -34 -54 -24 55 -60 hhcurveto
            return
          </CharString>
          <CharString index="513">
            vlineto
            99 callgsubr
            return
          </CharString>
          <CharString index="514">
            11 7 11 -33 514 callsubr
            return
          </CharString>
          <CharString index="515">
            213 callsubr
            -1 22 return
          </CharString>
          <CharString index="516">
            -161 -18 rlineto
            -13 0 -32 26 -2 vhcurveto
            return
          </CharString>
          <CharString index="517">
            267 66 204 74 hstem
            119 79 return
          </CharString>
          <CharString index="518">
            -50 25 -40 27 -27 hvcurveto
            endchar
          </CharString>
          <CharString index="519">
            -127 vlineto
            -17 44 -19 return
          </CharString>
          <CharString index="520">
            13 498 callgsubr
            return
          </CharString>
          <CharString index="521">
            224 70 41 77 -67 65 127 219 callgsubr
            30 81 289 73 120 82 return
          </CharString>
          <CharString index="522">
            -3 -45 hvcurveto
            -58 -3 -32 -19 -34 vvcurveto
            -38 45 -64 30 -21 vhcurveto
            693 callgsubr
            11 return
          </CharString>
          <CharString index="523">
            98 callgsubr
            40 36 -24 -51 -50 -40 -57 -54 -35 hvcurveto
            13 -23 20 -25 return
          </CharString>
          <CharString index="524">
            hlineto
            82 -34 -103 196 -155 553 callsubr
            return
          </CharString>
          <CharString index="525">
            -21 -18 -27 253 callsubr
            14 17 48 457 callgsubr
            return
          </CharString>
          <CharString index="526">
            -296 vmoveto
            409 callgsubr
            return
          </CharString>
          <CharString index="527">
            -56 146 callsubr
            return
          </CharString>
          <CharString index="528">
            185 123 229 74 hstem
            399 callgsubr
            return
          </CharString>
          <CharString index="529">
            330 callsubr
            vhcurveto
            509 callsubr
            return
          </CharString>
          <CharString index="530">
            491 callgsubr
            14 15 return
          </CharString>
          <CharString index="531">
            452 callgsubr
            16 return
          </CharString>
          <CharString index="532">
            13 16 4 8 7 vhcurveto
            13 16 return
          </CharString>
          <CharString index="533">
            -3 26 hhcurveto
            12 22 28 17 hvcurveto
            return
          </CharString>
          <CharString index="534">
            1 rrcurveto
            -34 -37 595 callsubr
            return
          </CharString>
          <CharString index="535">
            8 19 22 4 25 hhcurveto
            44 30 return
          </CharString>
          <CharString index="536">
            hhcurveto
            -52 -48 590 callsubr
            return
          </CharString>
          <CharString index="537">
            hlineto
            101 callgsubr
            return
          </CharString>
          <CharString index="538">
            -16 49 144 hvcurveto
            118 return
          </CharString>
          <CharString index="539">
            hlineto
            -37 124 callsubr
            return
          </CharString>
          <CharString index="540">
            -51 -62 -34 14 -33 25 -29 return
          </CharString>
          <CharString index="541">
            -47 -106 -90 71 -87 117 return
          </CharString>
          <CharString index="542">
            hstemhm
            41 92 -62 67 return
          </CharString>
          <CharString index="543">
            50 12 -49 -67 vhcurveto
            return
          </CharString>
          <CharString index="544">
            58 80 -26 77 137 77 134 74 hstemhm
            363 69 206 330 callgsubr
            hintmask 01111110
            return
          </CharString>
          <CharString index="545">
            hhcurveto
            -70 -86 -47 -106 -127 120 627 callgsubr
            return
          </CharString>
          <CharString index="546">
            -107 callgsubr
            309 -80 -130 hlineto
            -75 -49 -40 -68 -89 76 -71 59 hvcurveto
            return
          </CharString>
          <CharString index="547">
            -107 callgsubr
            296 -81 -131 hlineto
            -74 -50 -40 -68 -89 76 -71 60 hvcurveto
            return
          </CharString>
          <CharString index="548">
            vlineto
            -17 43 549 callsubr
          </CharString>
          <CharString index="549">
            12 11 8 11 -34 41 -79 87 -79 29 rrcurveto
            endchar
          </CharString>
          <CharString index="550">
            -14 -50 -42 -16 return
          </CharString>
          <CharString index="551">
            -15 hhcurveto
            -54 -29 -23 -48 -92 147 -184 230 -30 hvcurveto
            11 398 callsubr
            return
          </CharString>
          <CharString index="552">
            hlineto
            -5 -14 -3 -15 -17 vvcurveto
            -98 87 -131 54 -70 vhcurveto
            88 callgsubr
            return
          </CharString>
          <CharString index="553">
            -40 hlineto
            -72 -2 -45 -51 -67 vvcurveto
            -78 59 -47 64 -29 vhcurveto
            10 7 10 14 2 13 rrcurveto
            return
          </CharString>
          <CharString index="554">
            298 275 callgsubr
            return
          </CharString>
          <CharString index="555">
            50 59 117 vhcurveto
            hintmask 0101111111100000
            113 -46 58 return
          </CharString>
          <CharString index="556">
            -37 5 23 -30 52 hhcurveto
            49 18 22 30 1 hvcurveto
            return
          </CharString>
          <CharString index="557">
            531 callsubr
            -39 -16 return
          </CharString>
          <CharString index="558">
            -1 vhcurveto
            -42 1 -17 -24 -31 vvcurveto
            -37 37 -30 51 return
          </CharString>
          <CharString index="559">
            hlineto
            -25 535 callgsubr
            return
          </CharString>
          <CharString index="560">
            624 rmoveto
            -80 hlineto
            -355 -624 rlineto
            80 hlineto
            return
          </CharString>
          <CharString index="561">
            -43 28 -53 214 callgsubr
            -44 return
          </CharString>
          <CharString index="562">
            -52 -106 -35 -21 hhcurveto
            -15 -18 15 37 55 38 17 return
          </CharString>
          <CharString index="563">
            -93 -56 -42 -41 -75 vvcurveto
            -96 70 -79 117 34 return
          </CharString>
          <CharString index="564">
            330 callsubr
            hvcurveto
            257 callsubr
            return
          </CharString>
          <CharString index="565">
            -71 -52 -42 -60 246 callgsubr
            return
          </CharString>
          <CharString index="566">
            85 -15 65 205 54 329 58 return
          </CharString>
          <CharString index="567">
            54 hstem
            116 88 345 92 vstem
            return
          </CharString>
          <CharString index="568">
            10 26 104 98 vvcurveto
            45 return
          </CharString>
          <CharString index="569">
            -84 hlineto
            2 -17 -17 1 return
          </CharString>
          <CharString index="570">
            -24 -21 -5 -8 -18 hvcurveto
            return
          </CharString>
          <CharString index="571">
            10 16 -42 48 -13 -13 return
          </CharString>
          <CharString index="572">
            -4 591 callsubr
            return
          </CharString>
          <CharString index="573">
            22 -30 29 -28 4 return
          </CharString>
          <CharString index="574">
            57.5 return
          </CharString>
          <CharString index="575">
            -265 537 74 return
          </CharString>
          <CharString index="576">
            80 -88 110 return
          </CharString>
          <CharString index="577">
            222 16 -21 355 68 119 284 callgsubr
            228 64 vstem
            return
          </CharString>
          <CharString index="578">
            566 rmoveto
            -20 callgsubr
            return
          </CharString>
          <CharString index="579">
            rmoveto
            16 46 493 callgsubr
            -48 -39 -16 -13 39 -48 15 hvcurveto
            123 return
          </CharString>
          <CharString index="580">
            hlineto
            -1 -4 0 -5 -4 vvcurveto
            -47 34 -32 55 -21 vhcurveto
            11 5 11 13 5 10 rrcurveto
            return
          </CharString>
          <CharString index="581">
            217 512 callsubr
            hstem
            169 66 57 75 221 82 vstem
            return
          </CharString>
          <CharString index="582">
            -98 callsubr
            142 vlineto
            27 -11 return
          </CharString>
          <CharString index="583">
            288 rmoveto
            -51 -34 -51 -37 -49 241 callgsubr
            145 221 vlineto
            return
          </CharString>
          <CharString index="584">
            rmoveto
            15 49 270 callsubr
            443 callsubr
            -13 41 -50 16 hvcurveto
            endchar
          </CharString>
          <CharString index="585">
            125 185 479 callgsubr
          </CharString>
          <CharString index="586">
            -19 39 vhcurveto
            594 vlineto
            endchar
          </CharString>
          <CharString index="587">
            43 -8 33 vhcurveto
            return
          </CharString>
          <CharString index="588">
            53 573.5 52.5 hstem
            117 87.5 return
          </CharString>
          <CharString index="589">
            -52 rmoveto
            201 -240 rlineto
            -29 -33 -39 -19 -34 hhcurveto
            -72 -23 50 143 hvcurveto
            return
          </CharString>
          <CharString index="590">
            -23 20 -25 25 -16 rrcurveto
            56 38 42 480 callgsubr
            -71 70 -91 -38 -40 -16 return
          </CharString>
          <CharString index="591">
            325 callgsubr
            vhcurveto
            254 callgsubr
            return
          </CharString>
          <CharString index="592">
            vlineto
            119 callgsubr
            return
          </CharString>
          <CharString index="593">
            230 70 -43 74 206 219 callgsubr
            199 80 116 81 return
          </CharString>
          <CharString index="594">
            -104 callgsubr
            141 71 callgsubr
            return
          </CharString>
          <CharString index="595">
            rmoveto
            -394 -226 6 -23 20 -30 17 -14 rlinecurve
            372 234 rlineto
            endchar
          </CharString>
          <CharString index="596">
            -33 -52 vvcurveto
            -65 -66 -44 -80 vhcurveto
            hintmask 11011000
            101 return
          </CharString>
          <CharString index="597">
            53 257 50 270 51 hstem
            117 88 return
          </CharString>
          <CharString index="598">
            298 rmoveto
            -35 -22 -52 -17 -36 -6 rrcurveto
            26 return
          </CharString>
          <CharString index="599">
            hlineto
            37 -4 38 10 -1 hvcurveto
            return
          </CharString>
          <CharString index="600">
            -77 -50 -53 -63 -57 40 -57 return
          </CharString>
          <CharString index="601">
            10 2 26 18 10 14 rrcurveto
            return
          </CharString>
          <CharString index="602">
            -47 60 -54 25 -1 rrcurveto
            17 return
          </CharString>
          <CharString index="603" raw="1">
            f75915f7 ec06a60b  
          </CharString>
          <CharString index="604">
            247 callgsubr
            6 return
          </CharString>
          <CharString index="605">
            hhcurveto
            -70 -85 -47 return
          </CharString>
          <CharString index="606">
            71 52 37 66 return
          </CharString>
          <CharString index="607">
            10 -46 61 -55 25 -1 rrcurveto
            16 22 16 11 hvcurveto
            329 callgsubr
            21 return
          </CharString>
          <CharString index="608">
            318 callsubr
            rrcurveto
            return
          </CharString>
          <CharString index="609">
            -20 hvcurveto
            3 -23 16 -44 7 -11 rrcurveto
            10 24 60 18 45 hhcurveto
            114 81 return
          </CharString>
          <CharString index="610">
            44 110 callsubr
            -106 675 callsubr
            return
          </CharString>
          <CharString index="611">
            -40 -3 -37 callsubr
            rrcurveto
            478 562 callsubr
            return
          </CharString>
          <CharString index="612">
            9 9 -57 callgsubr
            return
          </CharString>
          <CharString index="613">
            rmoveto
            34 26 26 35 34 -26 27 -34 -35 -26 -27 -34 -35 26 -26 35 hvcurveto
            return
          </CharString>
          <CharString index="614">
            -15 47 -11 -21 278 47 -40 47 246 47 hstemhm
            45 62 145 63 return
          </CharString>
          <CharString index="615">
            579 callgsubr
            -50 return
          </CharString>
          <CharString index="616">
            257 callsubr
            43 -19 39 vhcurveto
            return
          </CharString>
          <CharString index="617">
            207 74 -43 56 hstemhm
            58 71 return
          </CharString>
          <CharString index="618">
            808 rmoveto
            135 -87 14 7 return
          </CharString>
          <CharString index="619">
            118 64 199 67 89 74 return
          </CharString>
          <CharString index="620">
            -49 -39 vvcurveto
            -20 -3 -17 return
          </CharString>
          <CharString index="621">
            41 260 callgsubr
            return
          </CharString>
          <CharString index="622">
            -26 -26 -31 -32 26 -25 return
          </CharString>
          <CharString index="623">
            38 -8 50 -11 39 vhcurveto
            return
          </CharString>
          <CharString index="624">
            24 45 58 54 vvcurveto
            59 return
          </CharString>
          <CharString index="625">
            -17 -9 -20 hvcurveto
            3 -23 return
          </CharString>
          <CharString index="626">
            -23 5 -18 0 -25 -5 return
          </CharString>
          <CharString index="627">
            3 -5 4 callsubr
            return
          </CharString>
          <CharString index="628">
            1 16 18 0 return
          </CharString>
          <CharString index="629">
            224 hmoveto
            27 return
          </CharString>
          <CharString index="630">
            67 -59 613 callgsubr
            173 66 53 75 241 674 callsubr
            return
          </CharString>
          <CharString index="631">
            335 rmoveto
            -105 -48 -26 -41 722 callgsubr
            return
          </CharString>
          <CharString index="632">
            -107 callgsubr
            93 -137 hlineto
            -142 56 -106 129 return
          </CharString>
          <CharString index="633">
            -2 -11 callsubr
            return
          </CharString>
          <CharString index="634">
            34 27 26 35 34 -27 27 -34 -34 -27 -27 -34 -35 27 -26 34 hvcurveto
            return
          </CharString>
          <CharString index="635">
            17 -21 115 76 184 77 -68 66 91 670 callgsubr
            return
          </CharString>
          <CharString index="636">
            -75 callgsubr
            35 45 55 return
          </CharString>
          <CharString index="637">
            198 142 -521 -105 callsubr
          </CharString>
          <CharString index="638">
            15 47 493 callgsubr
            -49 return
          </CharString>
          <CharString index="639">
            -92 -96 -53 -118 -106 79 -89 121 return
          </CharString>
          <CharString index="640">
            -72 -50 -29 -55 -95 -74 67 129 -84 return
          </CharString>
          <CharString index="641">
            162 rlineto
            8 19 23 4 25 hhcurveto
            44 return
          </CharString>
          <CharString index="642">
            632 callgsubr
            -67 hhcurveto
            return
          </CharString>
          <CharString index="643">
            -35 11 -11 rrcurveto
            17 return
          </CharString>
          <CharString index="644">
            443 callgsubr
            vstem
            return
          </CharString>
          <CharString index="645">
            77 86 74 hstemhm
            return
          </CharString>
          <CharString index="646">
            5 8 8 vhcurveto
            return
          </CharString>
          <CharString index="647">
            -49 -1 -48 -7 -41 -13 rrcurveto
            -22 20 -18 24 30 vvcurveto
            34 20 17 return
          </CharString>
          <CharString index="648">
            31 16 -21 355 691 callsubr
            return
          </CharString>
          <CharString index="649">
            -13 -20 -32 -8 -34 hhcurveto
            -82 -80 41 88 104 77 43 116 hvcurveto
            return
          </CharString>
          <CharString index="650">
            605 callgsubr
            -26 hhcurveto
            return
          </CharString>
          <CharString index="651">
            -73 callsubr
            -307 243 callgsubr
            return
          </CharString>
          <CharString index="652">
            hvcurveto
            59 21 -3 17 hhcurveto
            13 25 28 18 hvcurveto
            110 144 vlineto
            return
          </CharString>
          <CharString index="653">
            hvcurveto
            -7 -17 -4 -20 -23 vvcurveto
            -127 119 348 callgsubr
            vhcurveto
            return
          </CharString>
          <CharString index="654">
            238 126 -115 64 37 72 115 74 hstemhm
            178 70 return
          </CharString>
          <CharString index="655">
            369 callsubr
            vhcurveto
            740 callgsubr
            return
          </CharString>
          <CharString index="656">
            -19 411 callgsubr
          </CharString>
          <CharString index="657">
            54 -25 30 hvcurveto
            return
          </CharString>
          <CharString index="658">
            110 -67 52 return
          </CharString>
          <CharString index="659">
            -23 26 -5 rrcurveto
            return
          </CharString>
          <CharString index="660">
            hhcurveto
            -44 -70 354 callgsubr
            7 -11 rrcurveto
            10 return
          </CharString>
          <CharString index="661">
            -141 0 51 383 75 hstem
            116 85 146 67 vstem
            return
          </CharString>
          <CharString index="662">
            394 callsubr
            41 return
          </CharString>
          <CharString index="663">
            239 callsubr
            113 callsubr
            return
          </CharString>
          <CharString index="664">
            hhcurveto
            58 45 17 20 33 hvcurveto
            -132 vlineto
            -17 43 -19 39 vhcurveto
            return
          </CharString>
          <CharString index="665">
            0 -25 -5 rlinecurve
            -4 callgsubr
            return
          </CharString>
          <CharString index="666">
            67 -74 37 10 15 4 7 7 vhcurveto
            15 16 10 39 44 vvcurveto
            return
          </CharString>
          <CharString index="667">
            -36 719 callsubr
            12 -49 -67 vhcurveto
            return
          </CharString>
          <CharString index="668">
            12 8 13 662 callsubr
          </CharString>
          <CharString index="669">
            144 hlineto
            36 -40 -5 -10 -1 vhcurveto
            return
          </CharString>
          <CharString index="670">
            6 vhcurveto
            -10 29 -14 20 -18 18 rrcurveto
            return
          </CharString>
          <CharString index="671">
            -36 -45 -50 -46 32 -43 40 -36 hvcurveto
            return
          </CharString>
          <CharString index="672">
            118 hstemhm
            44 118 16 118 return
          </CharString>
          <CharString index="673">
            225 375 callgsubr
            return
          </CharString>
          <CharString index="674">
            142 58 337 74 hstem
            83 88 return
          </CharString>
          <CharString index="675">
            638 callgsubr
            -32 return
          </CharString>
          <CharString index="676">
            -37 124 callsubr
            72 -6 rlineto
            return
          </CharString>
          <CharString index="677">
            hvcurveto
            9 -26 21 536 callsubr
            return
          </CharString>
          <CharString index="678">
            -31 -57 -28 -44 -13 5 -21 14 -18 return
          </CharString>
          <CharString index="679">
            283 vlineto
            46 35 50 48 56 hhcurveto
            return
          </CharString>
          <CharString index="680">
            vvcurveto
            516 callsubr
            return
          </CharString>
          <CharString index="681">
            hhcurveto
            -39 357 callgsubr
            hvcurveto
            return
          </CharString>
          <CharString index="682">
            35 40 vvcurveto
            53 -42 32 -63 return
          </CharString>
          <CharString index="683">
            77 213 82 -76 134 return
          </CharString>
          <CharString index="684">
            4 19 13 6 10 rrcurveto
            59 return
          </CharString>
          <CharString index="685">
            rmoveto
            -273 -60 273 hlineto
            return
          </CharString>
          <CharString index="686">
            -559 702 70 66 72 return
          </CharString>
          <CharString index="687">
            -34 42 260 callgsubr
            return
          </CharString>
          <CharString index="688">
            69 388 53 121 -20 return
          </CharString>
          <CharString index="689">
            211 rmoveto
            -29 -28 -45 -23 return
          </CharString>
          <CharString index="690">
            14 48 4 40 rrcurveto
            1 return
          </CharString>
          <CharString index="691">
            -34 hvcurveto
            134 31 65 return
          </CharString>
          <CharString index="692">
            32 642 callgsubr
            return
          </CharString>
          <CharString index="693">
            34 -16 -46 64 -82 hhcurveto
            return
          </CharString>
          <CharString index="694">
            75 85 74 80 74 hstemhm
            return
          </CharString>
          <CharString index="695">
            -31 -41 vvcurveto
            -91 78 -59 return
          </CharString>
          <CharString index="696">
            48 -60 104 rrcurveto
            105 return
          </CharString>
          <CharString index="697">
            35 73 33 10 28 return
          </CharString>
          <CharString index="698">
            -5 -2 -11 -11 vvcurveto
            return
          </CharString>
          <CharString index="699">
            38 90 400 90 return
          </CharString>
          <CharString index="700">
            34 vvcurveto
            39 -16 29 return
          </CharString>
          <CharString index="701">
            19 -13 50 -5 return
          </CharString>
          <CharString index="702">
            1 -1 -32 hvcurveto
            return
          </CharString>
          <CharString index="703">
            -97 -54 -116 return
          </CharString>
          <CharString index="704">
            31 -21 vhcurveto
            -3 return
          </CharString>
          <CharString index="705">
            hintmask 10100000
            51 -2 28 -52 71 -3 69 -2 37 43 13 66 return
          </CharString>
          <CharString index="706">
            -62 hhcurveto
            -69 -51 30 50 -26 hvcurveto
            98 24 46 56 53 vvcurveto
            return
          </CharString>
          <CharString index="707">
            111 76 350 74 -43 56 hstemhm
            65 72 131 78 return
          </CharString>
          <CharString index="708">
            hhcurveto
            -31 -29 680 callsubr
            return
          </CharString>
          <CharString index="709">
            239 108 callsubr
            -52 -44 32 67 hvcurveto
            return
          </CharString>
          <CharString index="710">
            20 179 callgsubr
            -58 return
          </CharString>
          <CharString index="711">
            -96 vlineto
            3 -9 -11 2 -12 hhcurveto
            -71 -45 -46 -50 -28 hvcurveto
            return
          </CharString>
          <CharString index="712">
            140 callsubr
            594 callgsubr
            -2 return
          </CharString>
          <CharString index="713">
            17 -21 74 80 189 76 -45 124 callgsubr
            return
          </CharString>
          <CharString index="714">
            -4 vhcurveto
            12 -3 20 2 10 7 14 10 12 46 2 37 return
          </CharString>
          <CharString index="715">
            102 60 3 59 126 68 -61 218 callgsubr
            return
          </CharString>
          <CharString index="716">
            39 17 -4 -1 14 hvcurveto
            12 2 26 650 callgsubr
          </CharString>
          <CharString index="717">
            18 vvcurveto
            29 22 16 100 vhcurveto
            endchar
          </CharString>
          <CharString index="718">
            -18 -34 vvcurveto
            -39 return
          </CharString>
          <CharString index="719">
            71 0 -20 hstemhm
            return
          </CharString>
          <CharString index="720">
            49 143 hvcurveto
            return
          </CharString>
          <CharString index="721">
            68 -12 76 117 76 -71 76 -4 55 hintmask 1101110010000000
            return
          </CharString>
          <CharString index="722">
            460 callsubr
            204 56 rmoveto
            return
          </CharString>
          <CharString index="723">
            692 rmoveto
            377 callsubr
            -77 -36 51 29 return
          </CharString>
          <CharString index="724">
            -66 -62 -48 -33 hvcurveto
            14 -23 18 -25 27 -16 rrcurveto
            49 return
          </CharString>
          <CharString index="725">
            rmoveto
            -355 -624 rlineto
            75 hlineto
            355 624 rlineto
            return
          </CharString>
          <CharString index="726">
            98 74 hhcurveto
            5 4 522 callgsubr
            -363 vlineto
            -17 return
          </CharString>
          <CharString index="727">
            410 callgsubr
            17 -9 rrcurveto
            return
          </CharString>
          <CharString index="728">
            366 callgsubr
            293 return
          </CharString>
          <CharString index="729">
            -39 -24 22 29 -2 hvcurveto
            -29 -1 -12 -17 -17 vvcurveto
            -31 return
          </CharString>
          <CharString index="730">
            -8 0 51 392 51 537 callsubr
            202 return
          </CharString>
          <CharString index="731">
            -35 661 callsubr
            return
          </CharString>
          <CharString index="732">
            579 callgsubr
            -64 -45 -27 -93 -20 vhcurveto
            return
          </CharString>
          <CharString index="733">
            585 callgsubr
            hstem
            38 89 231 65 vstem
            return
          </CharString>
          <CharString index="734">
            vlineto
            -39 679 callsubr
            return
          </CharString>
          <CharString index="735">
            hlineto
            250 -196 rmoveto
            207 196 -207 hlineto
            return
          </CharString>
          <CharString index="736">
            -130 -105 callsubr
          </CharString>
          <CharString index="737">
            -22 16 vhcurveto
            8 2 11 6 6 return
          </CharString>
          <CharString index="738">
            -6 -22 -15 -6 -9 rrcurveto
            -87 41 return
          </CharString>
          <CharString index="739">
            54 hhcurveto
            16 14 1 2 13 hvcurveto
            return
          </CharString>
          <CharString index="740">
            43 24 33 39 24 25 -13 -33 return
          </CharString>
          <CharString index="741">
            327 callsubr
            15 return
          </CharString>
          <CharString index="742">
            81 79 vhcurveto
            173 190 vlineto
            return
          </CharString>
          <CharString index="743">
            hstemhm
            53 79 245 71 -47 79 return
          </CharString>
          <CharString index="744">
            664 callgsubr
            39 76 return
          </CharString>
          <CharString index="745">
            11 18 32 hvcurveto
            30 -46 19 -43 return
          </CharString>
          <CharString index="746">
            -196 45 70 38 return
          </CharString>
          <CharString index="747">
            -29 -36 -13 7 -19 return
          </CharString>
          <CharString index="748">
            vhcurveto
            22 17 rlineto
            42 return
          </CharString>
          <CharString index="749">
            11 49 2 33 rrcurveto
            return
          </CharString>
          <CharString index="750">
            -1 34 hhcurveto
            37 -1 return
          </CharString>
          <CharString index="751">
            79 -8 83 158 return
          </CharString>
          <CharString index="752">
            -44 -25 -61 hhcurveto
            return
          </CharString>
          <CharString index="753">
            rlineto
            34 -30 -53 return
          </CharString>
          <CharString index="754">
            73 75 74 hstem
            return
          </CharString>
          <CharString index="755">
            hstemhm
            117 87 return
          </CharString>
          <CharString index="756">
            1 10 rlinecurve
            endchar
          </CharString>
          <CharString index="757">
            110 69 188 75 95 74 hstem
            115 78 return
          </CharString>
          <CharString index="758">
            46 49 vhcurveto
            2 47 rmoveto
            -89 -48 -60 -115 hvcurveto
            return
          </CharString>
          <CharString index="759">
            48 41 638 callsubr
            28 -53 return
          </CharString>
          <CharString index="760">
            22 133 callgsubr
            return
          </CharString>
          <CharString index="761">
            35 50 47 55 307 callsubr
            -41 -57 return
          </CharString>
          <CharString index="762">
            34 -18 -45 63 -81 498 callsubr
            -107 -126 return
          </CharString>
          <CharString index="763">
            197 721 callsubr
            return
          </CharString>
          <CharString index="764">
            30 9 -21 -20 -28 -15 173 callsubr
            return
          </CharString>
          <CharString index="765">
            12 -12 27 1 6 6 14 13 23 47 13 18 return
          </CharString>
          <CharString index="766">
            170 callgsubr
            65 return
          </CharString>
          <CharString index="767">
            rmoveto
            16 48 270 callsubr
            -14 -50 -41 return
          </CharString>
          <CharString index="768">
            -25 -36 -39 51 -27 53 -14 hvcurveto
            36 -51 35 -82 return
          </CharString>
          <CharString index="769">
            11 7 10 -33 267 callgsubr
          </CharString>
          <CharString index="770">
            13 13 45 41 12 11 -37 47 -14 hvcurveto
            endchar
          </CharString>
          <CharString index="771">
            -38 124 callsubr
            return
          </CharString>
          <CharString index="772">
            32 -63 -95 -56 -66 -72 return
          </CharString>
          <CharString index="773">
            -41 -15 59 406 59 return
          </CharString>
          <CharString index="774">
            23 72 499 callsubr
            return
          </CharString>
          <CharString index="775">
            -34 66 505 74 hstemhm
            return
          </CharString>
          <CharString index="776">
            hvcurveto
            -10 -7 -14 -15 -6 return
          </CharString>
          <CharString index="777">
            vhcurveto
            -14 -1 -25 -7 -13 return
          </CharString>
          <CharString index="778">
            -127 104 -92 140 return
          </CharString>
          <CharString index="779">
            2 9 612 callgsubr
            return
          </CharString>
          <CharString index="780">
            72 75 74 hstem
            return
          </CharString>
          <CharString index="781">
            77 254 82 return
          </CharString>
          <CharString index="782">
            79 -91 119 return
          </CharString>
          <CharString index="783">
            74 -44 56 hstemhm
            return
          </CharString>
          <CharString index="784">
            29 -37 17 -11 return
          </CharString>
          <CharString index="785">
            18 vhcurveto
            -1096 -107 callgsubr
            return
          </CharString>
          <CharString index="786">
            -34 callsubr
            200 hlineto
            return
          </CharString>
          <CharString index="787">
            4 7 -26 hvcurveto
            10 25 5 30 34 vvcurveto
            38 return
          </CharString>
          <CharString index="788">
            vvcurveto
            56 30 41 66 49 22 -22 -15 16 vhcurveto
            return
          </CharString>
          <CharString index="789">
            431 rmoveto
            54 3 58 -9 1 -53 rrcurveto
            -37 return
          </CharString>
          <CharString index="790">
            hhcurveto
            -77 -49 -53 -65 -58 39 -55 73 -23 hvcurveto
            return
          </CharString>
          <CharString index="791">
            -72 180 63 79 63 hstem
            50 387 vstem
            return
          </CharString>
          <CharString index="792">
            rmoveto
            15 46 42 10 16 -41 48 -13 -14 -48 return
          </CharString>
          <CharString index="793">
            90 callsubr
            -36 550 callsubr
            return
          </CharString>
          <CharString index="794">
            133 125 185 84 -34 73 -64 27 return
          </CharString>
          <CharString index="795">
            -109 218 callsubr
            rlinecurve
            -157 return
          </CharString>
          <CharString index="796">
            rmoveto
            -6 callsubr
            return
          </CharString>
          <CharString index="797">
            -43 50 -14 -14 -50 -41 -16 -14 42 -50 15 return
          </CharString>
          <CharString index="798">
            67 120 284 callgsubr
            vstem
            return
          </CharString>
          <CharString index="799" raw="1">
            f8ad15f7 3806a60b  
          </CharString>
          <CharString index="800">
            -46 -2 -45 hflex1
            -58 -4 return
          </CharString>
          <CharString index="801">
            rmoveto
            713 callgsubr
            109 return
          </CharString>
          <CharString index="802">
            -236 hlineto
            -40 -1 -30 -9 return
          </CharString>
          <CharString index="803">
            587 callgsubr
            -70 return
          </CharString>
          <CharString index="804">
            77 131 vvcurveto
            37 -5 42 return
          </CharString>
          <CharString index="805">
            20 hhcurveto
            13 20 29 19 hvcurveto
            return
          </CharString>
          <CharString index="806">
            -64 -43 -56 -39 -74 hhcurveto
            -53 return
          </CharString>
          <CharString index="807">
            671 callsubr
            105 return
          </CharString>
          <CharString index="808">
            10 -42 17 -48 31 -28 rrcurveto
            return
          </CharString>
          <CharString index="809">
            hhcurveto
            -51 -24 42 110 hvcurveto
            return
          </CharString>
          <CharString index="810">
            7 5 14 469 callgsubr
            return
          </CharString>
          <CharString index="811">
            vhcurveto
            -3 5 8 -2 8 hhcurveto
            return
          </CharString>
          <CharString index="812">
            -33 336 callsubr
            return
          </CharString>
          <CharString index="813">
            69 677 callgsubr
            return
          </CharString>
          <CharString index="814">
            -76 -25 81 79 vhcurveto
            return
          </CharString>
          <CharString index="815">
            19 -8 24 24 vvcurveto
            return
          </CharString>
          <CharString index="816">
            8 hhcurveto
            11 10 4 return
          </CharString>
          <CharString index="817">
            74 hstem
            116 83 return
          </CharString>
          <CharString index="818">
            74 hstemhm
            359 70 return
          </CharString>
          <CharString index="819">
            -152 121 return
          </CharString>
          <CharString index="820">
            6 rlineto
            387 return
          </CharString>
          <CharString index="821">
            25 -31 16 -10 return
          </CharString>
          <CharString index="822">
            -4 -5 -2 -11 return
          </CharString>
          <CharString index="823">
            26 -31 16 -10 return
          </CharString>
          <CharString index="824">
            90 -69 68 -90 return
          </CharString>
          <CharString index="825">
            87 112 vvcurveto
            42 -5 46 -9 37 vhcurveto
            return
          </CharString>
          <CharString index="826">
            20 -29 29 44 vvcurveto
            38 22 22 35 50 return
          </CharString>
          <CharString index="827">
            -17 33 36 -8 31 103 50 101 87 hhcurveto
            return
          </CharString>
          <CharString index="828">
            rmoveto
            353 -90 callgsubr
            return
          </CharString>
          <CharString index="829">
            -287 -195 911 hstem
            100 72 vstem
            return
          </CharString>
          <CharString index="830">
            -15 -9 hvcurveto
            -4 537 callgsubr
            -42 return
          </CharString>
          <CharString index="831">
            -149 11 -8 -18 8 -39 13 -18 rlinecurve
            return
          </CharString>
          <CharString index="832">
            -83 -76 39 hvcurveto
            51 -52 -65 42 -53 hhcurveto
            return
          </CharString>
          <CharString index="833">
            -171 134 90 callsubr
            return
          </CharString>
          <CharString index="834">
            -86 -57 -20 -48 -97 -71 66 130 -85 return
          </CharString>
          <CharString index="835">
            25 26 -18 19 -26 -25 -19 -19 -26 vhcurveto
            return
          </CharString>
          <CharString index="836">
            -95 81 -88 110 53 330 callsubr
            return
          </CharString>
          <CharString index="837">
            590 callgsubr
            54 330 callsubr
            return
          </CharString>
          <CharString index="838">
            63 39 -35 -59 -62 -42 -37 -65 -109 return
          </CharString>
          <CharString index="839">
            hlineto
            116 -33 -89 183 -128 hhcurveto
            return
          </CharString>
          <CharString index="840">
            hlineto
            224 375 callgsubr
            return
          </CharString>
          <CharString index="841">
            702 callgsubr
            -34 -20 -37 return
          </CharString>
          <CharString index="842">
            184 callsubr
            20 16 -5 -8 return
          </CharString>
          <CharString index="843">
            150 -11 8 18 -8 39 -13 18 rlinecurve
            return
          </CharString>
          <CharString index="844">
            74 -37 48 hstemhm
            58 79 0 79 31 66 return
          </CharString>
          <CharString index="845">
            vlineto
            -37 -2 -27 -2 4 -30 -1 -6 rlinecurve
            return
          </CharString>
          <CharString index="846">
            -25 28 -16 rrcurveto
            return
          </CharString>
          <CharString index="847">
            -18 vhcurveto
            -13 -20 return
          </CharString>
          <CharString index="848">
            -65 31 -36 13 return
          </CharString>
          <CharString index="849">
            vvcurveto
            53 36 35 return
          </CharString>
          <CharString index="850">
            -2 5 7 -1 return
          </CharString>
          <CharString index="851">
            71 85 74 hstemhm
            return
          </CharString>
        <CharString name=".notdef">
          -41 0 52 597 52 hstem
          4 55 400 55 vstem
          4 hmoveto
          510 701 -510 hlineto
          55 -52 rmoveto
          400 -597 -400 hlineto
          200 250 rmoveto
          105 -209 rlineto
          60 hlineto
          -135 254 135 261 rlineto
          -60 hlineto
          -100 -206 rlineto
          -4 hlineto
          -105 206 rlineto
          -60 hlineto
          134 -255 -134 -260 rlineto
          60 hlineto
          100 209 rlineto
          endchar
        </CharString>
        <CharString name="A">
          381 callgsubr
          hstem
          11 602 vstem
          215 281 -97 callsubr
        </CharString>
        <CharString name="AE">
          317 0 242 callgsubr
          245 67 -65.5 54 263 467 callsubr
          hstemhm
          429 88 245 55 -35 55 hintmask 01011110
          296 360 rmoveto
          126 265 7 -1 rlineto
          -264 vlineto
          hintmask 01101101
          348 -297 rmoveto
          -260 -7 rlineto
          254 vlineto
          189 -11 4 26 0 31 -5 23 rlinecurve
          -188 -15 rlineto
          261 vlineto
          hintmask 10011110
          240 -4 10 -115 rlineto
          10 -1 40 -4 35 vvcurveto
          145 vlineto
          -426 -1 -306 -626 -39 -2 rlineto
          hintmask 01011110
          -40 -3 -37 callsubr
          rrcurveto
          183 -70 callsubr
          hintmask 10011110
          -77 6 120 250 rlineto
          159 -252 hlineto
          -41 -2 rlineto
          hintmask 01011101
          -40 -3 -37 callsubr
          rrcurveto
          484 562 callsubr
          endchar
        </CharString>
        <CharString name="Aacute">
          381 callgsubr
          hstem
          11 602 vstem
          469 838 40 callgsubr
          -53 -449 -97 callsubr
        </CharString>
        <CharString name="Abreve">
          381 callgsubr
          455 71 709 callgsubr
          11 602 hintmask 11110100
          439 886 rmoveto
          377 callsubr
          hintmask 11101100
          446 callgsubr
          -258 -589 -97 callsubr
        </CharString>
        <CharString name="Acircumflex">
          381 callgsubr
          527 70 hstem
          11 602 vstem
          315 318 callgsubr
          -22 6 -19 0 -25 -6 rlinecurve
          368 callsubr
          36 -440 -97 callsubr
        </CharString>
        <CharString name="Adieresis">
          381 callgsubr
          471 114 hstem
          169 436 callgsubr
          vstem
          399 310 callgsubr
          515 callsubr
          33 hvcurveto
          -13 -471 -97 callsubr
        </CharString>
        <CharString name="Agrave">
          381 callgsubr
          606 -20 hstem
          11 602 vstem
          246 887 -8 callgsubr
          -196 -477 -97 callsubr
        </CharString>
        <CharString name="Amacron">
          381 callgsubr
          483 60 hstem
          178 273 vstem
          451 824 578 callsubr
          -236 -483 -97 callsubr
        </CharString>
        <CharString name="Aogonek">
          66 -173 46 127 53 173 55 hstem
          453 64 vstem
          215 281 rmoveto
          87 295 85 -295 rlineto
          192 -281 rmoveto
          38 -4 40 10 -1 hvcurveto
          -67 6 -191 624 -28 3 -20 0 -28 -3 rlinecurve
          -193 -626 122 callsubr
          183 99 callsubr
          50 170 rlineto
          203 hlineto
          49 -172 -76 callgsubr
          133 hlineto
          -32 -22 -23 -32 -41 vvcurveto
          -47 37 -31 54 35 34 14 20 14 vhcurveto
          2 10 -3 21 -6 4 rrcurveto
          -9 -12 -17 -14 -27 hhcurveto
          -28 -19 16 32 36 20 25 38 18 hvcurveto
          endchar
        </CharString>
        <CharString name="Aring">
          381 callgsubr
          449 43 89 44 hstem
          226 47 89 48 vstem
          318 862 rmoveto
          27 17 -17 -27 -27 -17 -18 -27 -27 -18 18 27 27 18 17 27 hvcurveto
          -2 -132 rmoveto
          55 38 36 54 1 hvcurveto
          51 -35 35 -55 -57 -37 -36 -54 -51 35 -35 55 vhcurveto
          -101 -449 -97 callsubr
        </CharString>
        <CharString name="Atilde">
          381 callgsubr
          469 68 -17 72 hstemhm
          11 602 hintmask 11101000
          453 870 rmoveto
          -29 -7 -22 -23 -34 -54 -24 55 -60 hhcurveto
          hintmask 11011000
          520 callgsubr
          32 -11 rlineto
          24 8 20 23 26 hhcurveto
          hintmask 11101000
          48 28 -51 66 hhcurveto
          64 34 44 67 10 hvcurveto
          -269 -580 -97 callsubr
        </CharString>
        <CharString name="B">
          -1 0 55 273 48 252 53 hstemhm
          117 88 202 92 -59 91 hintmask 11110100
          205 56 rmoveto
          271 vlineto
          49 1 rlineto
          125 1 61 -36 -102 vvcurveto
          -83 -43 -55 -128 2 vhcurveto
          -18 576 rmoveto
          hintmask 11111000
          94 6 62 -36 -92 vvcurveto
          -83 -44 -50 -121 vhcurveto
          -37 252 2 hlineto
          -133 53 rmoveto
          -32 1 -40 -31 callgsubr
          -570 vlineto
          -42 -4 -30 -2 -2 -23 -1 -26 rlinecurve
          252 hlineto
          hintmask 11110100
          148 90 75 127 -1 hvcurveto
          93 -69 52 -78 13 vhcurveto
          hintmask 11111000
          71 27 44 52 78 vvcurveto
          84 -59 80 -151 vhcurveto
          endchar
        </CharString>
        <CharString name="C">
          47 callgsubr
          endchar
        </CharString>
        <CharString name="CR">
          -559 endchar
        </CharString>
        <CharString name="Cacute">
          47 callgsubr
          143 144 40 callgsubr
          endchar
        </CharString>
        <CharString name="Ccaron">
          12 -15 69 577 63 196 -20 634 callgsubr
          hintmask 11110100
          499 152 callgsubr
          19 0 22 6 rlinecurve
          163 -622 rmoveto
          49 callgsubr
          hintmask 11111000
          102 callgsubr
          -202 -109 -159 -214 4 vhcurveto
          -205 3 96 -131 189 hhcurveto
          hintmask 11110100
          129 88 65 40 9 -4 12 -9 4 hvcurveto
          endchar
        </CharString>
        <CharString name="Ccedilla">
          12 639 callsubr
          29 68 577 63 hstemhm
          38 92 230 64 39 74 -7 13 hintmask 11111100
          288 -81 rmoveto
          -9 callsubr
          hintmask 10111101
          7 29 rlineto
          116 7 78 59 38 vvcurveto
          9 -4 12 -9 4 vhcurveto
          49 callgsubr
          hintmask 10111110
          102 callgsubr
          -202 -109 -159 -214 4 vhcurveto
          3 -197 89 -129 175 -9 rrcurveto
          endchar
        </CharString>
        <CharString name="Ccircumflex">
          12 -15 69 577 63 114 71 0 -20 634 callgsubr
          hintmask 11101010
          334 808 -83 callsubr
          332 -606 rmoveto
          49 callgsubr
          hintmask 11011100
          102 callgsubr
          -202 -109 -159 -214 4 vhcurveto
          -205 3 96 -131 189 hhcurveto
          hintmask 11011010
          129 88 65 40 hvcurveto
          hintmask 11101010
          9 -4 12 -9 4 vhcurveto
          endchar
        </CharString>
        <CharString name="Cdotaccent">
          12 -15 69 577 63 81 113 hstemhm
          38 92 149 114 70 74 -7 13 hintmask 11111100
          336 775 81 callgsubr
          9 -81 rmoveto
          -202 -109 -159 -214 4 hvcurveto
          -205 3 96 -131 189 hhcurveto
          hintmask 11111010
          129 88 65 40 9 -4 12 -9 4 hvcurveto
          49 callgsubr
          hintmask 11111100
          102 callgsubr
          vhcurveto
          endchar
        </CharString>
        <CharString name="D">
          119 0 55 572 615 callsubr
          569 38 callsubr
          -569 62 callsubr
        </CharString>
        <CharString name="Dcaron">
          119 0 55 572 460 callsubr
          461 860 rmoveto
          -8 12 -9 12 -14 8 -135 -88 rcurveline
          -137 88 -14 -8 -8 -10 -7 -14 rlinecurve
          133 -122 25 -6 19 0 22 6 rlinecurve
          -124 -682 rmoveto
          569 38 callsubr
          -569 62 callsubr
        </CharString>
        <CharString name="Dcroat">
          31 callgsubr
        </CharString>
        <CharString name="E">
          3 callsubr
          -2 callsubr
          hintmask 01111100
          204 624 rmoveto
          -62 callsubr
          hintmask 10111100
          338 callgsubr
          hintmask 01111010
          -64 callgsubr
          endchar
        </CharString>
        <CharString name="Eacute">
          3 callsubr
          -2 callsubr
          hintmask 01111100
          204 624 rmoveto
          -62 callsubr
          hintmask 10111100
          338 callgsubr
          hintmask 01111010
          -64 callgsubr
          259 476 rmoveto
          -10 22 -30 29 -28 410 callgsubr
          18 -9 rrcurveto
          endchar
        </CharString>
        <CharString name="Ebreve">
          3 callsubr
          58 70 79 -20 21 186 callgsubr
          hintmask 0111101110000000
          311 807 rmoveto
          87 callgsubr
          hintmask 0111110110000000
          -35 16 rlineto
          hintmask 0111101110000000
          588 callgsubr
          -107 -183 rmoveto
          -62 callsubr
          hintmask 1011101110000000
          338 callgsubr
          hintmask 0111101101000000
          -64 callgsubr
          endchar
        </CharString>
        <CharString name="Ecaron">
          3 callsubr
          211 186 callgsubr
          hintmask 01111110
          475 152 callgsubr
          18 0 23 6 rlinecurve
          hintmask 01111101
          117 -674 389 callsubr
          hintmask 10111110
          -62 callsubr
          338 callgsubr
          hintmask 01111101
          477 callgsubr
        </CharString>
        <CharString name="Ecircumflex">
          3 callsubr
          129 70 0 186 callgsubr
          hintmask 0111101010000000
          310 318 callgsubr
          -23 6 -19 0 -24 -6 rlinecurve
          368 callsubr
          286 -658 389 callsubr
          hintmask 1011011100000000
          -62 callsubr
          338 callgsubr
          hintmask 0111011010000000
          477 callgsubr
        </CharString>
        <CharString name="Edieresis">
          3 callsubr
          73 114 648 callsubr
          -40 115 58 114 -1.5 54.5 -39.5 54.5 hintmask 0111110010000000
          204 624 rmoveto
          -62 callsubr
          hintmask 1011110010000000
          338 callgsubr
          hintmask 0111110001000000
          -64 callgsubr
          hintmask 0111101100000000
          18 390 143 callgsubr
          -25 -26 -31 -32 25 -25 31 hvcurveto
          endchar
        </CharString>
        <CharString name="Edotaccent">
          3 callsubr
          96 113 648 callsubr
          51 113 81.5 54.5 -39.5 54.5 hintmask 0111110100000000
          204 624 rmoveto
          -62 callsubr
          hintmask 1011110100000000
          338 callgsubr
          hintmask 0111111010000000
          -64 callgsubr
          107 413 rmoveto
          33 24 23 33 33 -24 24 -33 -32 -24 -24 -33 -33 24 -23 32 hvcurveto
          endchar
        </CharString>
        <CharString name="Egrave">
          3 callsubr
          208 186 callgsubr
          hintmask 01111110
          204 624 rmoveto
          -62 callsubr
          hintmask 10111110
          338 callgsubr
          hintmask 01111101
          -64 callgsubr
          169 363 5 callsubr
        </CharString>
        <CharString name="Emacron">
          3 callsubr
          85 60 -2 callsubr
          hintmask 01111110
          204 624 rmoveto
          -62 callsubr
          hintmask 10111110
          338 callgsubr
          hintmask 01111101
          -64 callgsubr
          -31 462 311 callsubr
        </CharString>
        <CharString name="Eng">
          130 -181 63 118 53 573 53 hstem
          117 62 164 60 126 61 vstem
          489 679 rmoveto
          -38 4 -40 -31 callgsubr
          -463 vlineto
          -339 519 rlineto
          -113 41 callsubr
          178 322 callsubr
          479 vlineto
          347 -529 rlineto
          -75 -1 -22 -49 -51 hhcurveto
          -34 -14 22 36 -1 hvcurveto
          -42 1 -18 -24 -31 vvcurveto
          -37 38 -30 51 105 53 97 107 vhcurveto
          602 205 callsubr
        </CharString>
        <CharString name="Eogonek">
          -1 -169 47 122 242 callgsubr
          243.5 67 252 57 648 callsubr
          203 64 -21.5 54.5 -39.5 54.5 hintmask 1011110010000000
          526 35 rmoveto
          -7 -2 rlineto
          111 vlineto
          36 -40 -5 -10 -1 vhcurveto
          -9 -111 405 callgsubr
          hintmask 1101110100000000
          -62 callsubr
          338 callgsubr
          hintmask 1011111000000000
          -40 -3 -37 callsubr
          rrcurveto
          415 hlineto
          -29 -22 -20 -31 -38 404 callgsubr
          -28 -20 15 33 39 25 27 47 19 hvcurveto
          endchar
        </CharString>
        <CharString name="Eth">
          31 callgsubr
        </CharString>
        <CharString name="Euro">
          -23 -16 59 174 55 51 55 189 57 hstemhm
          92 85 256 67 -12 12 hintmask 11111100
          369 217 rmoveto
          55 -191 vlineto
          -1 10 0 10 11 vvcurveto
          20 192 55 -187 vlineto
          117 16 56 72 77 hhcurveto
          64 38 -48 -69 hvcurveto
          39 1 28 19 42 vvcurveto
          63 -61 49 -94 -140 -85 -98 -148 -22 vhcurveto
          -62 -55 57 hlineto
          -1 -9 0 -10 -9 -8 0 -7 -8 vvcurveto
          -56 -55 61 hlineto
          -143 21 81 -90 128 hhcurveto
          hintmask 11111010
          93 80 48 45 11 -5 9 -7 4 hvcurveto
          -27 -31 -47 -31 -62 hhcurveto
          -91 -55 67 107 -18 hvcurveto
          endchar
        </CharString>
        <CharString name="F">
          -41 0 53 259.5 67 243 56.5 hstem
          117 89 239.5 55.5 vstem
          501 679 rmoveto
          -423 hlineto
          -39 4 -39 745 callgsubr
          -7 rlineto
          -569 60 callgsubr
          220 -70 callsubr
          -88 6 rlineto
          262 vlineto
          188 -11 5 26 -1 32 -5 22 rlinecurve
          -187 -15 rlineto
          252 vlineto
          234 -3 11 -110 rlineto
          10 -1 40 -4 35 vvcurveto
          endchar
        </CharString>
        <CharString name="G">
          459 callsubr
          hstemhm
          38 92 358 76 -70 74 hintmask 11111000
          399 309 39 callgsubr
          hintmask 11110100
          8 callsubr
          hintmask 11111000
          90 callgsubr
        </CharString>
        <CharString name="Gbreve">
          459 callsubr
          40 71 709 callgsubr
          38 92 358 76 -70 74 hintmask 1111101100000000
          459 886 rmoveto
          377 callsubr
          hintmask 1111011100000000
          446 callgsubr
          -94 -561 39 callgsubr
          hintmask 1111011010000000
          8 callsubr
          hintmask 1111011100000000
          90 callgsubr
        </CharString>
        <CharString name="Gcircumflex">
          459 callsubr
          112 612 callsubr
          38 92 358 76 -70 74 hintmask 11110110
          335 808 -83 callsubr
          200 -412 39 callgsubr
          hintmask 11101101
          8 callsubr
          hintmask 11101110
          90 callgsubr
        </CharString>
        <CharString name="Gdotaccent">
          459 callsubr
          79 113 hstemhm
          38 92 150 114 94 76 -70 74 hintmask 11111110
          337 775 81 callgsubr
          62 -466 39 callgsubr
          hintmask 11111101
          8 callsubr
          hintmask 11111110
          90 callgsubr
        </CharString>
        <CharString name="H">
          695 callgsubr
          260 53 hstem
          117 87 320 88 vstem
          612 56 31 callsubr
        </CharString>
        <CharString name="Hbar">
          695 callgsubr
          91 56 113 53 hstem
          117 87 320 88 vstem
          205 366 rmoveto
          91 319 -91 vlineto
          88 -310 rmoveto
          401 65 56 -65 112 vlineto
          40 490 callgsubr
          569 callsubr
          -110 -319 112 vlineto
          -73 callgsubr
          -110 -67 -56 67 -403 485 callsubr
          -74 6 rlineto
          255 320 -257 60 callgsubr
          203 100 callsubr
        </CharString>
        <CharString name="Hcircumflex">
          695 callgsubr
          260 53 129 71 hstem
          117 87 320 88 vstem
          367 808 -83 callsubr
          381 -665 31 callsubr
        </CharString>
        <CharString name="I">
          281 callgsubr
          hstem
          117 87 vstem
          205 56 44 callgsubr
        </CharString>
        <CharString name="IJ">
          46 -124 63 61 53 574 54 hstem
          117 87 45 59 101 90 vstem
          205 56 rmoveto
          -1 569 1 hlineto
          -79 callsubr
          86 631 rmoveto
          -38 4 -41 -10 1 hvcurveto
          79 -6 -1 -562 rlineto
          -96 -18 -27 -34 -34 -14 23 35 451 callsubr
          108 54 108 112 vhcurveto
          1 530 38 741 callgsubr
          40 649 callsubr
        </CharString>
        <CharString name="Iacute">
          281 callgsubr
          hstem
          117 87 vstem
          317 838 40 callgsubr
          89 -105 rmoveto
          -79 callsubr
          -73 6 rlineto
          -1 569 hlineto
          endchar
        </CharString>
        <CharString name="Ibreve">
          281 callgsubr
          58 70 709 callgsubr
          117 87 hintmask 11110100
          287 886 rmoveto
          588 callgsubr
          hintmask 11101100
          87 callgsubr
          -117 -245 rmoveto
          -79 callsubr
          -73 6 rlineto
          -1 569 hlineto
          endchar
        </CharString>
        <CharString name="Icircumflex">
          281 callgsubr
          129 70 0 -20 648 callsubr
          hintmask 11011000
          205 625 rmoveto
          -79 callsubr
          -73 6 rlineto
          -1 569 hlineto
          -7 249 rmoveto
          -22 6 -19 0 -25 -6 rrcurveto
          hintmask 11101000
          368 callsubr
          136 87 135 -87 14 7 10 12 7 12 rlinecurve
          endchar
        </CharString>
        <CharString name="Idieresis">
          281 callgsubr
          73 114 hstemhm
          17 115 -15 87 -14 115 hintmask 11110000
          132 809 rmoveto
          399 callsubr
          515 callsubr
          33 31 25 25 32 vhcurveto
          hintmask 11001000
          73 -184 rmoveto
          -79 callsubr
          -73 6 rlineto
          -1 569 hlineto
          hintmask 11100100
          43 241 rmoveto
          -31 515 callsubr
          31 33 25 25 32 31 -25 26 -33 hvcurveto
          endchar
        </CharString>
        <CharString name="Idotaccent">
          281 callgsubr
          96 113 hstemhm
          108 113 -104 87 hintmask 11110000
          165 775 rmoveto
          33 23 23 33 33 -23 279 callsubr
          hintmask 11101000
          40 -719 44 callgsubr
        </CharString>
        <CharString name="Igrave">
          281 callgsubr
          208 -20 hstem
          117 87 vstem
          94 887 -8 callgsubr
          -54 -702 44 callgsubr
        </CharString>
        <CharString name="Imacron">
          281 callgsubr
          85 60 hstem
          117 87 vstem
          205 625 rmoveto
          -79 callsubr
          -73 6 rlineto
          -1 569 hlineto
          -178 199 311 callsubr
        </CharString>
        <CharString name="Iogonek">
          -237 -166 46 120 53 573 53 648 callsubr
          -42 64 hintmask 01110000
          282 37 rmoveto
          -3 -1 rlineto
          6 -1 5 3 vvcurveto
          -73 6 rlineto
          -1 569 1 hlineto
          -66 callsubr
          hintmask 11101000
          168 hlineto
          -28 -22 -19 -29 -37 vvcurveto
          -47 38 -31 53 36 34 14 105 callsubr
          -12 -18 -13 -26 hhcurveto
          -28 -20 15 33 39 26 27 47 19 hvcurveto
          endchar
        </CharString>
        <CharString name="Itilde">
          281 callgsubr
          71 69 -18 73 648 callsubr
          hintmask 11101000
          205 625 rmoveto
          -79 callsubr
          -73 6 rlineto
          -1 569 hlineto
          97 245 rmoveto
          -29 -7 -22 -22 -34 -54 -24 55 -60 hhcurveto
          hintmask 11011000
          520 callgsubr
          32 -12 rlineto
          25 8 20 22 26 hhcurveto
          hintmask 11101000
          48 28 -51 66 hhcurveto
          64 34 45 66 10 hvcurveto
          endchar
        </CharString>
        <CharString name="J">
          -207 -62 63 625 53 hstem
          -1 59 102 87 vstem
          113 679 rmoveto
          664 callsubr
          79 -6 rlineto
          1 -499 hlineto
          -96 -19 -27 -33 -35 -14 22 36 451 callsubr
          101 59 83 112 vhcurveto
          492 vlineto
          38 193 callgsubr
        </CharString>
        <CharString name="Jcircumflex">
          -207 -62 63 625 53 129 612 callsubr
          -1 59 102 87 hintmask 11011100
          159 623 rmoveto
          1 -499 hlineto
          -96 -19 -27 -33 -35 -14 22 36 451 callsubr
          101 59 83 112 vhcurveto
          492 vlineto
          300 callgsubr
          -207 hlineto
          664 callsubr
          159 246 rmoveto
          519 callsubr
          rrcurveto
          hintmask 11101100
          -4 callgsubr
          136 87 59 callsubr
          endchar
        </CharString>
        <CharString name="K">
          53 0 481 callsubr
          vstem
          407 679 rmoveto
          -37 124 callsubr
          64 -5 -235 -293 1 294 -66 callsubr
          208 99 callsubr
          rlineto
          192 vlineto
          43 52 211 -300 rlineto
          99 hlineto
          34 3 37 11 -4 hvcurveto
          -62 6 525 callgsubr
          endchar
        </CharString>
        <CharString name="L">
          -22 0 210 callgsubr
          648 callsubr
          254 56 hintmask 01111000
          452 62 rmoveto
          30 callgsubr
          hintmask 10111000
          -570 vlineto
          -41 -2 rlineto
          hintmask 01111000
          66 callgsubr
        </CharString>
        <CharString name="Lacute">
          -22 0 210 callgsubr
          648 callsubr
          254 56 hintmask 01111000
          362 838 487 callgsubr
          291 -668 rmoveto
          30 callgsubr
          hintmask 10111000
          -570 vlineto
          -41 -2 rlineto
          hintmask 01111000
          66 callgsubr
        </CharString>
        <CharString name="Lcaron">
          41 0 210 callgsubr
          68 10 648 callsubr
          157 90 7 56 hintmask 01111100
          386 541 rmoveto
          45 47 23 74 -3 73 -10 26 -71 6 -19 -18 14 -44 0 -94 -20 -50 rrcurveto
          -7 33 -18 8 5 vhcurveto
          hintmask 01111010
          66 -479 rmoveto
          30 callgsubr
          hintmask 10111010
          -570 vlineto
          -41 -2 rlineto
          hintmask 01111010
          66 callgsubr
        </CharString>
        <CharString name="Ldot">
          -22 0 53 -53 59 218 126 224.5 328 callsubr
          648 callsubr
          156 125 -27 56 hintmask 01111100
          422 277 508 callgsubr
          hintmask 01011010
          30 -215 rmoveto
          30 callgsubr
          hintmask 10011010
          -570 vlineto
          -41 -2 rlineto
          hintmask 01011010
          66 callgsubr
        </CharString>
        <CharString name="Lslash">
          -17 0 210 callgsubr
          hstemhm
          122 87 254 56 hintmask 01111000
          457 62 rmoveto
          -248 -6 rlineto
          242 vlineto
          149 117 -36 44 -113 -89 rlineto
          256 1 vlineto
          50 741 callgsubr
          40 1 10 rlinecurve
          -213 430 callsubr
          72 -6 rlineto
          -323 vlineto
          -97 -76 36 -44 61 48 rlineto
          hintmask 10111000
          -175 vlineto
          -41 -2 rlineto
          hintmask 01111000
          66 callgsubr
        </CharString>
        <CharString name="M">
          273 592 callgsubr
          hstem
          13 806 vstem
          750 58 rmoveto
          -44 566 70 6 rlineto
          10 1 4 41 -37 hhcurveto
          -142 hlineto
          -176 -437 -195 437 rlineto
          -135 430 callsubr
          70 -6 -43 -570 -43 -86 callgsubr
          188 375 callsubr
          -75 6 35 493 195 -434 15 -3 21 3 14 4 rlinecurve
          186 447 37 -512 122 callsubr
          198 100 callsubr
        </CharString>
        <CharString name="N">
          557 callgsubr
          489 679 -78 callsubr
        </CharString>
        <CharString name="NULL">
          -559 endchar
        </CharString>
        <CharString name="Nacute">
          557 callgsubr
          497 838 40 callgsubr
          193 -51 -78 callsubr
        </CharString>
        <CharString name="Ncaron">
          128 0 53 573 53 211 -20 hstem
          117 61 351 60 vstem
          509 287 callgsubr
          113 -58 -78 callsubr
        </CharString>
        <CharString name="Ntilde">
          128 0 53 573 53 71 68 -17 72 hstemhm
          117 61 351 60 hintmask 11101100
          481 870 rmoveto
          -29 -7 -22 -23 -34 -54 -24 55 -60 hhcurveto
          hintmask 11011100
          520 callgsubr
          32 -11 rlineto
          24 8 20 23 26 hhcurveto
          hintmask 11101100
          48 28 -51 67 hhcurveto
          63 34 44 67 10 hvcurveto
          -23 -182 -78 callsubr
        </CharString>
        <CharString name="O">
          96 397 callsubr
          61 callgsubr
          endchar
        </CharString>
        <CharString name="OE">
          337 -15 61 -46 46 -46 59.5 245 67 251.5 58 -46 61 hstemhm
          38 92 320 87 245 55 -34.5 54.5 hintmask 0011101101000000
          857 hmoveto
          144 vlineto
          36 -40 -5 -10 -1 vhcurveto
          -9 -111 -261 -7 rlineto
          254 vlineto
          189 -11 5 26 -1 31 -4 23 rlinecurve
          -189 -15 rlineto
          261 vlineto
          hintmask 0011101110000000
          240 -4 10 -115 rlineto
          10 -1 40 -4 35 vvcurveto
          145 -385 vlineto
          hintmask 1001011101000000
          10 -33 -35 5 -34 hhcurveto
          -208 -108 -158 -217 4 hvcurveto
          -204 3 106 -132 172 hhcurveto
          hintmask 0011101101000000
          39 35 5 10 32 hvcurveto
          hintmask 0101011101000000
          -295 339 rmoveto
          174 58 121 149 1 vhcurveto
          47 37 -11 -20 29 hvcurveto
          -523 vlineto
          -23 -30 -37 -12 -49 hhcurveto
          -156 -48 123 170 hvcurveto
          endchar
        </CharString>
        <CharString name="Oacute">
          96 397 callsubr
          61 callgsubr
          165 205 rmoveto
          -10 22 -30 29 -28 620 callsubr
          endchar
        </CharString>
        <CharString name="Obreve">
          96 397 callsubr
          43 70 709 callgsubr
          592 callsubr
          hintmask 11101110
          341 807 rmoveto
          87 callgsubr
          hintmask 11110110
          -35 16 rlineto
          hintmask 11101110
          588 callgsubr
          -113 vmoveto
          -88 callsubr
          endchar
        </CharString>
        <CharString name="Ocircumflex">
          96 397 callsubr
          114 70 495 callgsubr
          340 511 callsubr
          9 12 8 12 rlinecurve
          -132 122 -23 6 -19 0 -24 -6 rlinecurve
          -134 -122 7 -14 8 -9 15 -8 rlinecurve
          121 -675 rmoveto
          -138 -59 120 173 215 callgsubr
          hvcurveto
          139 1 61 -120 -178 vvcurveto
          -174 -65 -115 -138 -1 vhcurveto
          293 308 rmoveto
          256 -3 -138 84 -136 hhcurveto
          -195 -111 -148 -225 3 hvcurveto
          -209 3 100 -127 170 hhcurveto
          201 107 148 221 -1 hvcurveto
          endchar
        </CharString>
        <CharString name="Odieresis">
          96 397 callsubr
          58 114 hstem
          38 90 66 115 57 115 47 -29 callgsubr
          -76 119 143 callgsubr
          515 callsubr
          31 hvcurveto
          endchar
        </CharString>
        <CharString name="Ograve">
          96 397 callsubr
          193 -20 495 callgsubr
          328 633 rmoveto
          139 1 61 -120 -178 vvcurveto
          -174 -65 -115 -138 -1 vhcurveto
          -138 -59 120 173 215 callgsubr
          hvcurveto
          13 61 rmoveto
          -195 -111 -148 -225 3 hvcurveto
          -209 3 100 -127 170 hhcurveto
          201 107 148 221 -1 hvcurveto
          256 -3 -138 84 -136 hhcurveto
          62 31 5 callsubr
        </CharString>
        <CharString name="Ohungarumlaut">
          96 397 callsubr
          495 callgsubr
          618 802 -90 callsubr
          22 108 -90 callsubr
          103 hmoveto
          -88 callsubr
          endchar
        </CharString>
        <CharString name="Omacron">
          96 397 callsubr
          70 60 61 callgsubr
          -125 191 rmoveto
          -60 272 60 vlineto
          endchar
        </CharString>
        <CharString name="Oslash">
          130 397 callsubr
          495 callgsubr
          494 526 rmoveto
          23 -49 11 -65 -76 vvcurveto
          -174 -65 -115 -138 -1 vhcurveto
          -38 -31 9 16 -27 hvcurveto
          -49 48 rmoveto
          -35 52 -17 76 92 vvcurveto
          215 callgsubr
          52 41 -16 -31 32 vhcurveto
          123 82 rmoveto
          -59 29 -26 -45 rlineto
          30 -45 -53 12 -52 hhcurveto
          -195 -111 -148 -225 3 hvcurveto
          2 -123 35 -94 63 -57 -18 -32 rcurveline
          58 -32 16 27 rlineto
          -16 34 39 -9 44 hhcurveto
          201 107 148 221 -1 hvcurveto
          -1 118 -31 82 -45 53 rrcurveto
          endchar
        </CharString>
        <CharString name="Otilde">
          96 397 callsubr
          56 68 -17 72 hstemhm
          592 callsubr
          hintmask 11101100
          -62 callgsubr
          hintmask 11011100
          -124 121 rmoveto
          24 8 21 23 26 hhcurveto
          hintmask 11101100
          47 28 -51 67 hhcurveto
          64 33 44 67 11 hvcurveto
          -31 9 rlineto
          -29 -7 -23 -23 -34 -54 -23 55 -61 hhcurveto
          hintmask 11011100
          520 callgsubr
          endchar
        </CharString>
        <CharString name="P">
          3 0 53 214 51 312 51 hstem
          117 87 247 91 vstem
          262 631 rmoveto
          127 7 62 -53 -105 vvcurveto
          -107 -66 -55 -131 vhcurveto
          -15 -18 1 -17 hhcurveto
          310 vlineto
          -130 52 rmoveto
          -28 -3 -31 -19 94 callgsubr
          37 -4 40 10 -1 hvcurveto
          -79 6 rlineto
          213 vlineto
          -1 19 23 -1 19 hhcurveto
          162 115 67 156 111 -82 80 -169 hvcurveto
          endchar
        </CharString>
        <CharString name="Q">
          106 -141 71 60 56 587 61 495 callgsubr
          128 339 rmoveto
          215 callgsubr
          vhcurveto
          139 1 61 -120 -178 vvcurveto
          -174 -65 -115 -138 -1 vhcurveto
          -138 -59 120 173 hvcurveto
          490 -393 rmoveto
          -11 -17 -20 -5 -14 hhcurveto
          -39 -80 25 35 -77 hvcurveto
          162 27 86 139 -1 198 rrcurveto
          256 -3 -138 84 -136 hhcurveto
          -195 -111 -148 -225 3 hvcurveto
          3 -191 84 -123 145 -19 rrcurveto
          -49 80 117 -80 87 hhcurveto
          41 31 24 35 13 -3 9 -5 6 hvcurveto
          endchar
        </CharString>
        <CharString name="R">
          33 0 490 callsubr
          227 91 vstem
          205 629 -80 callgsubr
        </CharString>
        <CharString name="Racute">
          33 0 490 callsubr
          227 91 vstem
          433 838 40 callgsubr
          -27 -101 -80 callgsubr
        </CharString>
        <CharString name="Rcaron">
          33 0 53 257 50 270 51 209 -20 hstem
          117 88 227 91 vstem
          444 152 callgsubr
          19 0 22 6 rlinecurve
          -107 -108 -80 callgsubr
        </CharString>
        <CharString name="S">
          30 callsubr
          endchar
        </CharString>
        <CharString name="Sacute">
          30 callsubr
          149 144 487 callgsubr
          endchar
        </CharString>
        <CharString name="Scaron">
          -52 397 callsubr
          196 -20 636 callsubr
          hintmask 11110100
          430 287 callgsubr
          -2 -342 rmoveto
          213 callgsubr
          hintmask 11111000
          47 callsubr
          hintmask 11110100
          24 callsubr
          102 -69 37 -116 50 hvcurveto
          endchar
        </CharString>
        <CharString name="Scircumflex">
          -52 397 callsubr
          114 71 0 -20 636 callsubr
          hintmask 11101010
          265 808 -83 callsubr
          166 -326 rmoveto
          213 callgsubr
          hintmask 11011100
          47 callsubr
          hintmask 11011010
          24 callsubr
          hvcurveto
          hintmask 11101010
          102 -69 37 -116 50 vhcurveto
          endchar
        </CharString>
        <CharString name="T">
          53 0 53 568 58 hstem
          20 54 189 280 callgsubr
          vstem
          20 679 211 callgsubr
          -38 callgsubr
        </CharString>
        <CharString name="Tbar">
          53 0 53 568 58 85 60 hstem
          20 54 189 280 callgsubr
          vstem
          447 824 578 callsubr
          -427 -85 211 callgsubr
          -38 callgsubr
        </CharString>
        <CharString name="Tcaron">
          53 0 53 568 58 hstem
          20 54 189 280 callgsubr
          vstem
          476 860 48 callsubr
          277 callgsubr
          -324 -58 211 callgsubr
          -38 callgsubr
        </CharString>
        <CharString name="Thorn">
          38 0 53 92 51 306 51 74 54 hstem
          117 87 242 94 vstem
          255 502 rmoveto
          128 63 -48 -103 -102 -66 -53 -133 -11 -17 0 1 -15 hvcurveto
          305 vlineto
          51 vmoveto
          73 1 vlineto
          41 741 callgsubr
          40 1 10 rlinecurve
          -204 hlineto
          -38 4 -41 -31 callgsubr
          -570 485 callsubr
          -73 6 rlineto
          -1 90 hlineto
          18 24 -1 14 hhcurveto
          165 115 63 151 113 -83 81 -174 hvcurveto
          endchar
        </CharString>
        <CharString name="U">
          338 callsubr
          57 callgsubr
          endchar
        </CharString>
        <CharString name="Uacute">
          338 callsubr
          57 callgsubr
          -151 159 rmoveto
          -10 106 callgsubr
          -12 9 339 callgsubr
          endchar
        </CharString>
        <CharString name="Ubreve">
          338 callsubr
          58 70 709 callgsubr
          92 87 319 62 hintmask 11101110
          331 807 rmoveto
          87 callgsubr
          hintmask 11110110
          -35 16 rlineto
          hintmask 11101110
          588 callgsubr
          127 -128 -96 callsubr
          endchar
        </CharString>
        <CharString name="Ucircumflex">
          338 callsubr
          129 70 hstem
          92 87 319 62 vstem
          330 318 callgsubr
          -23 6 -18 0 -25 -6 rlinecurve
          368 callsubr
          264 -42 -96 callsubr
          endchar
        </CharString>
        <CharString name="Udieresis">
          338 callsubr
          73 114 hstemhm
          92 87 5 115 58 114 27 62 hintmask 11010010
          -63 callsubr
          hintmask 11101110
          -392 73 143 callgsubr
          -25 -26 -31 -32 25 -25 31 hvcurveto
          endchar
        </CharString>
        <CharString name="Ugrave">
          338 callsubr
          208 -20 57 callgsubr
          -241 46 5 callsubr
        </CharString>
        <CharString name="Uhungarumlaut">
          338 callsubr
          hstem
          92 87 319 62 vstem
          608 802 -90 callsubr
          22 108 -90 callsubr
          230 -15 -96 callsubr
          endchar
        </CharString>
        <CharString name="Umacron">
          338 callsubr
          85 60 hstemhm
          92 87 14 62 243 62 hintmask 11110100
          458 679 rmoveto
          569 callsubr
          -375 vlineto
          -142 -64 -61 -105 -99 -51 62 147 vhcurveto
          371 vlineto
          hintmask 11111100
          -47 callsubr
          hintmask 11110100
          -203 hlineto
          -38 4 -40 -31 callgsubr
          -367 vlineto
          -179 70 -92 155 169 74 102 177 674 callgsubr
          39 -81 callsubr
          hintmask 11111100
          -441 145 311 callsubr
        </CharString>
        <CharString name="Uogonek">
          94 -183 46 122 60 581 53 hstem
          92 87 88 64 167 62 vstem
          458 679 rmoveto
          569 callsubr
          -375 vlineto
          -142 -64 -61 -105 -99 -51 62 147 vhcurveto
          371 vlineto
          41 490 callgsubr
          -38 4 -40 -31 callgsubr
          -367 vlineto
          -179 70 -92 154 vhcurveto
          -29 -22 -20 -30 -38 vvcurveto
          -47 38 -31 53 35 34 14 105 callsubr
          -11 -18 -13 -26 hhcurveto
          -28 -20 16 32 40 25 25 46 19 hvcurveto
          109 31 49 94 144 vvcurveto
          361 vlineto
          39 193 callgsubr
        </CharString>
        <CharString name="Uring">
          338 callsubr
          51 43 89 44 hstem
          92 87 61 48 89 48 73 -31 callsubr
          -300 227 rmoveto
          -56 -38 -36 -54 -51 36 -35 54 56 38 36 54 1 hvcurveto
          51 -35 35 -56 vhcurveto
          -2 -44 rmoveto
          27 18 -17 -27 -27 -18 -18 -27 -27 -17 18 27 27 17 17 27 hvcurveto
          endchar
        </CharString>
        <CharString name="Utilde">
          338 callsubr
          71 69 -18 73 hstemhm
          92 87 319 62 hintmask 11011100
          195 754 rmoveto
          25 8 20 22 26 hhcurveto
          hintmask 11101100
          405 callsubr
          hintmask 11011100
          520 callgsubr
          295 -87 -96 callsubr
          endchar
        </CharString>
        <CharString name="V">
          64 21 -21 626 53 hstem
          3 617 vstem
          455 679 rmoveto
          -37 3 287 callsubr
          74 -6 -176 -509 -161 511 -47 callsubr
          -199 432 callsubr
          58 -6 210 -623 rlineto
          68 hlineto
          223 625 22 3 40 4 -6 37 649 callsubr
        </CharString>
        <CharString name="W">
          372 callsubr
          hstemhm
          3 946 vstemhm
          788 679 188 callgsubr
          hintmask 11010000
          235 callsubr
          hintmask 11110000
          -59 callgsubr
        </CharString>
        <CharString name="Wacute">
          372 callsubr
          hstemhm
          3 946 hintmask 11010000
          651 838 rmoveto
          -11 106 callgsubr
          -11 9 -13 18 -8 rrcurveto
          hintmask 11110000
          338 -52 188 callgsubr
          hintmask 11010000
          235 callsubr
          hintmask 11110000
          -59 callgsubr
        </CharString>
        <CharString name="Wcircumflex">
          372 callsubr
          129 612 callsubr
          3 946 hintmask 11110100
          497 808 -83 callsubr
          427 -42 188 callgsubr
          hintmask 11001100
          235 callsubr
          hintmask 11101100
          -59 callgsubr
        </CharString>
        <CharString name="Wdieresis">
          372 callsubr
          73 114 hstemhm
          351 436 callgsubr
          hintmask 11011100
          580 752 rmoveto
          -20 callgsubr
          -170 hmoveto
          -5 callsubr
          hintmask 11111100
          378 -73 188 callgsubr
          hintmask 11011100
          235 callsubr
          hintmask 11111100
          -59 callgsubr
        </CharString>
        <CharString name="Wgrave">
          372 callsubr
          208 -20 hstemhm
          3 946 hintmask 11011000
          428 887 -8 callgsubr
          hintmask 11111000
          195 -79 188 callgsubr
          hintmask 11011000
          235 callsubr
          hintmask 11111000
          -59 callgsubr
        </CharString>
        <CharString name="X">
          84 592 callgsubr
          hstem
          13 619 vstem
          568 56 rmoveto
          -199 292 186 279 rlineto
          3 hlineto
          27 2 40 3 -6 39 589 callgsubr
          -38 4 -41 -10 1 hvcurveto
          69 -6 -141 -225 -154 227 34 430 callgsubr
          -204 430 callsubr
          61 -6 199 -294 -190 -276 -35 -86 callgsubr
          185 -70 callsubr
          -69 6 145 225 154 -227 rlineto
          -1 hlineto
          -31 -2 -39 -3 5 -39 -1 -10 rlinecurve
          203 100 callsubr
        </CharString>
        <CharString name="Y">
          45 592 callgsubr
          hstem
          260 89 vstem
          434 681 -67 callsubr
        </CharString>
        <CharString name="Yacute">
          45 592 callgsubr
          hstem
          260 89 vstem
          468 838 40 callgsubr
          167 -49 -67 callsubr
        </CharString>
        <CharString name="Ycircumflex">
          45 592 callgsubr
          127 71 hstem
          260 89 vstem
          314 808 -83 callsubr
          256 -40 -67 callsubr
        </CharString>
        <CharString name="Ydieresis">
          45 592 callgsubr
          71 114 hstemhm
          169 114 -23 89 -8 115 hintmask 11110100
          398 310 callgsubr
          -25 -26 -31 -32 25 -25 33 hvcurveto
          207 -71 243 callsubr
          73 -6 -153 -282 -159 284 rlineto
          1 hlineto
          41 3 39 2 -5 40 1 10 rlinecurve
          -204 430 callsubr
          58 -6 rlineto
          hintmask 11001000
          198 -346 rlineto
          -224 60 callgsubr
          205 322 callsubr
          224 vlineto
          195 346 22 3 40 4 -6 38 649 callsubr
        </CharString>
        <CharString name="Ygrave">
          45 592 callgsubr
          206 -20 hstem
          260 89 vstem
          246 887 -8 callgsubr
          23 -77 -67 callsubr
        </CharString>
        <CharString name="Z">
          158 callgsubr
          451 69 -35 callgsubr
        </CharString>
        <CharString name="Zacute">
          158 callgsubr
          450 838 40 callgsubr
          202 -661 -35 callgsubr
        </CharString>
        <CharString name="Zcaron">
          158 callgsubr
          461 860 48 callsubr
          277 callgsubr
          122 -668 -35 callgsubr
        </CharString>
        <CharString name="Zdotaccent">
          -9 0 62.5 559 63.5 90 113 hstem
          66 61.5 113.5 113 110 55 vstem
          298 775 rmoveto
          33 23 23 33 33 -23 279 callsubr
          153 -706 -35 callgsubr
        </CharString>
        <CharString name="a">
          105 callgsubr
          435 callsubr
          203 85 hintmask 01111010
          341 94 -72 callgsubr
        </CharString>
        <CharString name="aacute">
          105 callgsubr
          435 callsubr
          203 85 hintmask 01111010
          391 647 -90 callsubr
          151 -445 -72 callgsubr
        </CharString>
        <CharString name="abreve">
          105 callgsubr
          33 71 435 callsubr
          203 85 hintmask 01111101
          361 332 callsubr
          -55 -582 -40 callgsubr
          hintmask 10111011
          -79 callgsubr
          hintmask 01111101
          18 callsubr
          hintmask 10111101
          84 callgsubr
        </CharString>
        <CharString name="acircumflex">
          105 callgsubr
          435 callsubr
          203 85 hintmask 01111010
          237 622 rmoveto
          136 -87 13 7 10 13 7 11 rlinecurve
          -132 470 callgsubr
          240 -441 -72 callgsubr
        </CharString>
        <CharString name="acute">
          41 539 162 hstem
          174 234 vstem
          408 647 -90 callsubr
          endchar
        </CharString>
        <CharString name="acute.cap">
          41 545 162 hstem
          174 234 vstem
          408 652 rmoveto
          -11 106 callgsubr
          -11 9 -13 18 -8 rrcurveto
          endchar
        </CharString>
        <CharString name="adieresis">
          105 callgsubr
          57 114 435 callsubr
          -47 436 callgsubr
          -38 85 hintmask 0111100110000000
          320 471 callsubr
          -170 hmoveto
          -5 callsubr
          hintmask 0111110001000000
          191 -472 -40 callgsubr
          hintmask 1011101001000000
          -79 callgsubr
          hintmask 0111110001000000
          18 callsubr
          hintmask 1011110001000000
          84 callgsubr
        </CharString>
        <CharString name="ae">
          216 -15 63 -63 67 159 54 -7 52 140 59 435 callsubr
          203 91 226 86 hintmask 0101110110000000
          572 509 rmoveto
          -65 -63 -29 -55 -43 hvcurveto
          74 -32 -96 10 -38 hhcurveto
          hintmask 0110101110000000
          -98 -66 -45 -59 -41 32 -15 35 4 hvcurveto
          39 1 21 57 76 hhcurveto
          72 33 -50 -76 hvcurveto
          -69 vlineto
          7 -28 -35 4 -37 hhcurveto
          hintmask 1010110110000000
          -154 -46 -73 -73 -83 60 -51 93 84 65 41 43 39 hvcurveto
          hintmask 0101110110000000
          -57 37 61 -27 72 hhcurveto
          103 79 54 36 10 -6 14 -9 6 hvcurveto
          -35 -43 -43 -18 -54 hhcurveto
          -112 -35 79 100 hvcurveto
          11 1 7 9 vvcurveto
          311 51 hlineto
          98 1 -44 102 -129 hhcurveto
          hintmask 1010110110000000
          -331 -298 rmoveto
          40 36 -10 -12 24 hvcurveto
          -95 vlineto
          -27 -32 -40 -19 -47 hhcurveto
          -56 -33 28 54 51 38 30 70 hvcurveto
          321 239 rmoveto
          hintmask 0101110110000000
          61 35 -51 -89 hvcurveto
          -219 hlineto
          hintmask 1010110110000000
          87 15 44 53 64 hhcurveto
          endchar
        </CharString>
        <CharString name="agrave">
          105 callgsubr
          435 callsubr
          203 85 hintmask 01111010
          168 701 -8 callgsubr
          8 -478 -72 callgsubr
        </CharString>
        <CharString name="amacron">
          105 callgsubr
          69 60 435 callsubr
          -38 273 -32 85 hintmask 0111100100000000
          373 638 578 callsubr
          hintmask 0111110010000000
          -32 -484 -40 callgsubr
          hintmask 1011101010000000
          -79 callgsubr
          hintmask 0111110010000000
          18 callsubr
          hintmask 1011110010000000
          84 callgsubr
        </CharString>
        <CharString name="ampersand">
          172 -18 62 -61 72 229 49 290 52 hstemhm
          38 84 -26 77 168 76 hintmask 10111010
          268 44 rmoveto
          -101 -45 59 68 51 27 51 52 36 hvcurveto
          12 -15 13 -15 15 -16 55 -60 60 -60 58 -48 rrcurveto
          -35 -44 -52 -16 -50 hhcurveto
          hintmask 10110110
          -4 579 rmoveto
          30 47 -22 -64 -59 -28 -65 -69 -32 hvcurveto
          -48 63 -23 49 38 vvcurveto
          52 32 40 59 vhcurveto
          353 -338 rmoveto
          38 2 -7 36 1 10 rrcurveto
          -155 hlineto
          -36 4 -37 -10 1 hvcurveto
          61 -6 -13 -53 -20 -43 -24 -34 rlinecurve
          -57 47 -61 60 -55 63 -8 9 -7 8 -7 8 rrcurveto
          72 27 73 68 96 vvcurveto
          91 -75 48 -76 -107 -63 -66 -90 -48 20 -52 53 -70 vhcurveto
          hintmask 10111010
          -98 -53 -33 -77 -64 vvcurveto
          -97 69 -76 143 78 73 25 52 60 vhcurveto
          hintmask 01111010
          -46 64 61 -30 51 hhcurveto
          56 24 36 30 13 -5 13 -9 8 hvcurveto
          -18 -12 -28 -10 -22 hhcurveto
          -32 -46 23 37 -51 hvcurveto
          31 44 26 56 16 68 rrcurveto
          endchar
        </CharString>
        <CharString name="aogonek">
          -51 -179 46 118 63 -36 -21 220 54 184 60 435 callsubr
          196 64 -57 85 hintmask 1101110010000000
          341 94 -40 callgsubr
          85 -147 rmoveto
          285 vlineto
          148 -109 33 -82 vhcurveto
          hintmask 1011101010000000
          -98 -66 -45 -58 -42 31 -15 36 4 hvcurveto
          45 2 25 51 70 hhcurveto
          72 34 -47 -79 hvcurveto
          -69 vlineto
          7 -29 -35 4 -36 hhcurveto
          hintmask 1101110010000000
          18 callsubr
          hintmask 1011110010000000
          5 -24 12 -19 24 -9 rrcurveto
          hintmask 1011110100000000
          -30 -22 -22 -31 -39 vvcurveto
          -47 38 -31 53 35 34 14 105 callsubr
          -11 -18 -13 -26 hhcurveto
          -28 -20 15 33 30 15 23 27 17 hvcurveto
          hintmask 1011110010000000
          34 4 18 18 28 vvcurveto
          endchar
        </CharString>
        <CharString name="approxequal">
          4 224 78 -21 81 hstemhm
          79 363 hintmask 10100000
          442 341 rmoveto
          -32 10 -9 -28 -25 -22 -36 1 rlinecurve
          598 callgsubr
          2 -1 rcurveline
          -2 -9 33 -13 10 24 23 22 28 -1 rlinecurve
          598 callsubr
          -2 1 rcurveline
          endchar
        </CharString>
        <CharString name="aring">
          105 callgsubr
          35 44 89 44 435 callsubr
          10 48 88 48 9 85 hintmask 0111110011100000
          240 677 rmoveto
          27 17 -17 -28 -27 -17 -17 -27 -27 -17 17 27 28 17 17 27 hvcurveto
          -2 -133 rmoveto
          55 38 36 54 1 hvcurveto
          52 -35 35 -55 -57 -37 -36 -55 -51 35 -35 55 vhcurveto
          hintmask 0111111010100000
          103 -450 -40 callgsubr
          hintmask 1011110110100000
          -79 callgsubr
          hintmask 0111111010100000
          18 callsubr
          hintmask 1011110010100000
          84 callgsubr
        </CharString>
        <CharString name="asciicircum">
          -63 204 449 hstem
          54 387 vstem
          441 204 rmoveto
          -165 449 rlineto
          -47 hlineto
          -175 -449 rlineto
          78 hlineto
          119 311 113 -311 rlineto
          endchar
        </CharString>
        <CharString name="asciitilde">
          4 226 68 -11 71 hstemhm
          100 363 hintmask 01100000
          133 238 rmoveto
          10 24 23 22 28 -1 rrcurveto
          598 callsubr
          -32 10 rcurveline
          -9 -28 -25 -22 -36 1 rrcurveto
          598 callgsubr
          rrcurveto
          endchar
        </CharString>
        <CharString name="asterisk">
          -15 355 362 hstem
          60 372 vstem
          266 558 rmoveto
          27 153 -25 8 -45 1 -26 -9 rlinecurve
          29 -154 -138 74 -16 -20 -11 -43 -1 -30 rlinecurve
          155 -19 -112 -107 15 -23 36 -26 27 -7 rlinecurve
          65 138 65 -139 28 8 35 26 16 22 rlinecurve
          -114 109 156 19 rlineto
          27 -12 42 -16 23 vhcurveto
          endchar
        </CharString>
        <CharString name="at">
          431 -164 53 157 64 -57 54 322 57 145 53 hstemhm
          65 63 737 59 hintmask 11011110
          568 159 rmoveto
          -30 -39 -31 -19 -42 hhcurveto
          -83 -22 71 85 13 hvcurveto
          73 10 40 90 91 hhcurveto
          45 34 -21 -18 16 hvcurveto
          149 -444 rmoveto
          -40 -61 -84 -17 -80 hhcurveto
          -238 -158 146 217 228 157 151 235 207 138 -111 -167 hvcurveto
          hintmask 10111110
          -151 -90 -98 -134 3 vhcurveto
          51 373 -80 -7 -1 -10 rlineto
          15 -29 -30 8 -39 hhcurveto
          -135 -82 -97 -139 -16 hvcurveto
          hintmask 11011110
          -145 -17 71 -59 88 hhcurveto
          58 45 26 30 36 hvcurveto
          hintmask 10111110
          -42 -2 25 -7 40 hhcurveto
          180 120 124 186 193 -161 128 -242 -273 -183 -174 -262 -247 180 -165 269 100 80 24 36 67 hvcurveto
          endchar
        </CharString>
        <CharString name="atilde">
          105 callgsubr
          50 67 -11 71 435 callsubr
          203 85 hintmask 0111101010000000
          377 675 rmoveto
          -8 -28 -23 -22 -34 1 rrcurveto
          hintmask 0111011010000000
          181 callsubr
          31 -12 rcurveline
          573 callgsubr
          hintmask 0111101010000000
          249 callsubr
          13 66 rrcurveto
          -67 -571 -40 callgsubr
          hintmask 1011100110000000
          -79 callgsubr
          hintmask 0111101010000000
          18 callsubr
          hintmask 1011101010000000
          84 callgsubr
        </CharString>
        <CharString name="b">
          3 -15 62 394 68 hstem
          90 84 261 90 vstem
          174 383 rmoveto
          37 41 34 21 49 hhcurveto
          97 40 -85 -108 -102 -33 -99 -105 -56 -45 27 20 -22 hvcurveto
          609 vmoveto
          -160 -20 252 callgsubr
          -592 vlineto
          81 -28 rlineto
          -15 33 33 -10 47 hhcurveto
          159 85 116 167 -3 hvcurveto
          171 -4 -94 70 -99 hhcurveto
          -68 -49 -31 -35 -37 hvcurveto
          endchar
        </CharString>
        <CharString name="backslash">
          -165 -119 815 hstem
          19 354 vstem
          373 -119 rmoveto
          -277 815 rlineto
          -77 hlineto
          277 -815 rlineto
          endchar
        </CharString>
        <CharString name="bar">
          722 callsubr
          100 -195 rmoveto
          72 911 -72 hlineto
          endchar
        </CharString>
        <CharString name="braceleft">
          -225 -191 52 803 52 hstemhm
          50 91 -40 76 -60 77 hintmask 11010000
          236 716 rmoveto
          -77 -58 -52 -80 hvcurveto
          hintmask 11001000
          -73 16 -57 -75 vvcurveto
          -36 -8 -20 -15 -17 vhcurveto
          hintmask 11100000
          -7 -9 -10 -8 -27 -11 rrcurveto
          -30 vlineto
          hintmask 11001000
          26 -11 9 -6 9 -11 rrcurveto
          15 -18 8 -18 -34 -81 -16 -57 -71 vvcurveto
          hintmask 11010000
          -80 56 -52 75 33 35 5 8 20 vhcurveto
          -5 41 rlineto
          -1 -9 -11 -1 -10 hhcurveto
          -68 -40 25 60 hvcurveto
          hintmask 11001000
          50 17 78 61 vvcurveto
          74 -23 40 -30 10 vhcurveto
          8 vlineto
          30 9 23 40 75 74 -17 64 50 vvcurveto
          hintmask 11010000
          59 40 26 68 10 11 -1 -1 9 vhcurveto
          5 41 rlineto
          8 -14 -34 5 -36 hhcurveto
          endchar
        </CharString>
        <CharString name="braceright">
          -225 -191 52 803 52 hstemhm
          129 77 -60 76 -40 91 hintmask 11010000
          8 662 rmoveto
          1 9 11 1 10 hhcurveto
          68 40 -26 -59 hvcurveto
          hintmask 11100000
          -50 -17 -64 -74 vvcurveto
          -75 23 -40 30 -9 vhcurveto
          -8 vlineto
          -30 -10 -23 -40 -74 -61 17 -78 -50 vvcurveto
          hintmask 11010000
          -60 -40 -25 -68 -10 -11 1 1 -9 vhcurveto
          -5 -41 rlineto
          -8 20 35 -5 33 hhcurveto
          75 56 52 80 hvcurveto
          hintmask 11100000
          71 -16 57 81 vvcurveto
          34 8 18 15 18 vhcurveto
          hintmask 11001000
          9 11 9 6 26 11 rrcurveto
          30 vlineto
          hintmask 11100000
          -27 11 -10 8 -7 9 rrcurveto
          -15 17 -8 20 36 75 16 57 73 vvcurveto
          hintmask 11010000
          80 -58 52 -77 -36 -34 -5 -8 -14 vhcurveto
          endchar
        </CharString>
        <CharString name="bracketleft">
          -318 -169 51 774 51 hstem
          69 72 vstem
          141 656 rmoveto
          81 51 -153 -876 153 51 -81 hlineto
          endchar
        </CharString>
        <CharString name="bracketright">
          -324 -169 51 774 51 hstem
          100 72 vstem
          100 -118 rmoveto
          -81 -51 153 876 -153 -51 81 hlineto
          endchar
        </CharString>
        <CharString name="breve">
          41 542 71 hstem
          128 316 vstem
          287 613 rmoveto
          86 callsubr
          -35 16 rlineto
          377 callsubr
          endchar
        </CharString>
        <CharString name="breve.cap">
          41 551 70 hstem
          128 316 vstem
          287 621 rmoveto
          87 callgsubr
          -35 16 rlineto
          588 callgsubr
          endchar
        </CharString>
        <CharString name="brokenbar">
          722 callsubr
          172 175 rmoveto
          -72 -370 72 hlineto
          -72 541 rmoveto
          72 370 -72 hlineto
          endchar
        </CharString>
        <CharString name="bullet">
          -102 238 194 hstem
          131 195 vstem
          228 238 rmoveto
          55 43 42 55 54 -43 43 -55 -54 -43 -43 -54 -55 43 -42 54 hvcurveto
          endchar
        </CharString>
        <CharString name="c">
          626 callsubr
          277 509 rmoveto
          352 callsubr
          hvcurveto
          119 callsubr
          13 callsubr
          vhcurveto
          endchar
        </CharString>
        <CharString name="cacute">
          626 callsubr
          419 647 -90 callsubr
          59 -30 rmoveto
          352 callsubr
          hvcurveto
          119 callsubr
          13 callsubr
          vhcurveto
          endchar
        </CharString>
        <CharString name="caron">
          157 callgsubr
        </CharString>
        <CharString name="caron.cap">
          157 callgsubr
        </CharString>
        <CharString name="ccaron">
          585 callgsubr
          38 612 callsubr
          38 89 231 65 hintmask 11011000
          430 674 48 callsubr
          hintmask 11101100
          134 -123 25 -5 19 0 22 5 rlinecurve
          115 -446 rmoveto
          13 callsubr
          352 callsubr
          vhcurveto
          119 callsubr
          endchar
        </CharString>
        <CharString name="ccedilla">
          -101 639 callsubr
          28 67 394 63 hstemhm
          38 89 143 64 24 65 hintmask 11111100
          198 -81 rmoveto
          -9 callsubr
          hintmask 10111100
          7 28 rlineto
          89 5 81 48 37 vvcurveto
          10 -6 14 -10 6 vhcurveto
          -34 -41 -44 -19 -49 hhcurveto
          -119 -33 97 99 112 44 86 91 hvcurveto
          hintmask 11111110
          70 25 -53 -44 1 hvcurveto
          30 -2 35 14 47 vvcurveto
          61 -57 40 -89 352 callsubr
          vhcurveto
          1 -133 62 -95 115 -14 rrcurveto
          endchar
        </CharString>
        <CharString name="ccircumflex">
          626 callsubr
          265 622 -83 callsubr
          284 -430 rmoveto
          13 callsubr
          352 callsubr
          vhcurveto
          119 callsubr
          endchar
        </CharString>
        <CharString name="cdotaccent">
          585 callgsubr
          54 113 hstem
          38 89 83 114 34 65 vstem
          277 509 rmoveto
          352 callsubr
          hvcurveto
          119 callsubr
          13 callsubr
          vhcurveto
          -10 54 81 callgsubr
          endchar
        </CharString>
        <CharString name="cedilla">
          41 639 callsubr
          hstem
          318 64 vstem
          315 18 rmoveto
          -43 hlineto
          -26 -99 rlineto
          -9 callsubr
          endchar
        </CharString>
        <CharString name="cedilla.cap">
          41 639 callsubr
          hstem
          318 64 vstem
          315 18 rmoveto
          -43 hlineto
          -26 -99 rlineto
          -9 callsubr
          endchar
        </CharString>
        <CharString name="cent">
          -67 -16 67 398 157 hstem
          50 89 102.5 66 63.5 65 vstem
          311 600 rmoveto
          -19 8 -37 0 -17 -8 7 -94 rcurveline
          -127 -20 -70 -109 2 -153 1 -133 68 -102 127 -5 -8 -92 rcurveline
          17 -8 37 0 19 8 -7 96 rcurveline
          76 12 62 39 35 vvcurveto
          8 -5 14 -11 7 vhcurveto
          -35 -41 -44 -17 -51 hhcurveto
          -118 -33 97 104 109 45 88 90 70 26 -53 -47 1 hvcurveto
          29 -2 36 13 49 vvcurveto
          56 -50 39 -82 5 vhcurveto
          endchar
        </CharString>
        <CharString name="circumflex">
          41 535 158 hstem
          103 332 vstem
          303 689 7 callsubr
        </CharString>
        <CharString name="circumflex.cap">
          41 535 158 hstem
          103 332 vstem
          303 689 7 callsubr
        </CharString>
        <CharString name="colon">
          -346 -15 125 192 126 hstem
          44 125 vstem
          107 -15 rmoveto
          35 27 27 35 36 -27 27 -35 -36 -27 -27 -36 -35 27 -27 36 hvcurveto
          317 vmoveto
          35 27 27 36 36 -27 27 -35 -36 -27 -27 -36 -36 27 -27 36 hvcurveto
          endchar
        </CharString>
        <CharString name="comma">
          -350 -16 121 hstem
          44 121 vstem
          104 105 96 callgsubr
        </CharString>
        <CharString name="copyright">
          113 24 60 77 49 210 45 73 60 hstemhm
          50 67 98 63 123 40 -6 9 112 66 hintmask 1111111010000000
          337 598 rmoveto
          -175 -112 -118 -170 -173 114 -113 173 172 113 115 171 175 -116 113 -169 hvcurveto
          -60 vmoveto
          127 92 -86 -142 -138 -88 -88 -131 -133 -87 88 138 134 83 94 137 hvcurveto
          104 -132 rmoveto
          35 -32 24 -54 -89 -52 -67 -98 1 vhcurveto
          -79 46 -60 82 vhcurveto
          hintmask 1111110110000000
          55 46 29 23 7 -3 11 -6 4 hvcurveto
          -19 -24 -25 -6 -26 hhcurveto
          -66 -16 50 57 58 25 45 44 hvcurveto
          hintmask 1111111010000000
          37 17 -25 -23 hvcurveto
          16 -1 24 9 26 vvcurveto
          endchar
        </CharString>
        <CharString name="currency">
          30 90 66 251 67 hstem
          104 71 242 71 vstem
          488 281 rmoveto
          48 -13 42 -24 32 vhcurveto
          90 76 -15 19 -22 23 -17 9 rlinecurve
          -78 -88 rlineto
          21 -30 -39 11 -44 hhcurveto
          -45 -39 -12 -21 -32 hvcurveto
          -79 89 -17 -9 -22 -23 -14 -19 rlinecurve
          92 -78 rlineto
          -24 -32 -12 -41 -47 vvcurveto
          -46 12 -40 22 -31 vhcurveto
          -90 -77 14 -19 22 -23 17 -10 rlinecurve
          79 89 rlineto
          -22 31 39 -12 46 hhcurveto
          45 39 10 22 31 hvcurveto
          76 -87 17 10 22 23 15 19 rlinecurve
          -88 75 rlineto
          23 31 12 41 47 vvcurveto
          -191 -125 rmoveto
          -73 -49 51 74 75 49 51 73 71 49 -51 -75 -74 -49 -51 -71 hvcurveto
          endchar
        </CharString>
        <CharString name="d">
          -6 362 callsubr
          hstemhm
          38 89 262 84 hintmask 01111000
          343 callsubr
          102 34 99 104 56 46 -27 -20 22 hvcurveto
          hintmask 10111000
          84 -356 rmoveto
          659 vlineto
          316 callsubr
          hintmask 01111000
          422 callgsubr
          hintmask 10111000
          449 callsubr
          endchar
        </CharString>
        <CharString name="dagger">
          -59 464.5 64 hstemhm
          211 78 -71.5 65.5 141 16 hintmask 11010000
          288 523 rmoveto
          2 163 -26 5 -32 -4 -22 -8 rlinecurve
          2 -156 724 callsubr
          hintmask 10110000
          137 11 9 -625 16 -4 24 0 17 4 rlinecurve
          8 625 736 callsubr
          endchar
        </CharString>
        <CharString name="daggerdbl">
          -59 267.5 63.5 133.5 64 hstemhm
          211 75 -72 75 -71 64 142 16 hintmask 11100100
          285 326 rmoveto
          2 144 736 callsubr
          hintmask 11010100
          -136 -11 2 163 rlineto
          hintmask 11100100
          -26 5 -32 -4 -22 -8 2 -156 rcurveline
          724 callsubr
          hintmask 11010100
          137 11 2 -144 -152 10 -8 -18 8 -38 13 -18 rlinecurve
          hintmask 11001100
          139 11 6 -428 17 -4 24 0 17 4 rlinecurve
          6 429 152 -12 8 18 -8 38 -13 18 rlinecurve
          endchar
        </CharString>
        <CharString name="dcaron">
          73 362 callsubr
          226 11 hstemhm
          38 89 262 84 62 78 hintmask 01111110
          343 callsubr
          102 34 99 104 56 46 -27 -20 22 hvcurveto
          84 303 rmoveto
          316 callsubr
          422 callgsubr
          hintmask 10111110
          449 callsubr
          -65 7 rlineto
          140 683 rmoveto
          -11 22 -58 392 callgsubr
        </CharString>
</ttFont>
